<svg id="Layer_1" data-name="Layer 1" xmlns="http://www.w3.org/2000/svg" xmlns:xlink="http://www.w3.org/1999/xlink" viewBox="0 0 394.04 276.96" width="406" height="306" class="illustration"><defs><linearGradient id="linear-gradient" x1="275.88" y1="138.01" x2="103.76" y2="299.32" gradientUnits="userSpaceOnUse"><stop offset="0"></stop><stop offset="1" stop-opacity="0"></stop></linearGradient><linearGradient id="linear-gradient-2" x1="172.95" y1="135.05" x2="150.81" y2="235.46" xlink:href="#linear-gradient"></linearGradient><linearGradient id="linear-gradient-3" x1="201.34" y1="141.41" x2="138.56" y2="243.69" xlink:href="#linear-gradient"></linearGradient><linearGradient id="linear-gradient-4" x1="172.95" y1="95.99" x2="150.81" y2="196.4" xlink:href="#linear-gradient"></linearGradient><linearGradient id="linear-gradient-5" x1="275.89" y1="59.9" x2="103.76" y2="221.21" xlink:href="#linear-gradient"></linearGradient><linearGradient id="linear-gradient-6" x1="172.95" y1="56.95" x2="150.81" y2="157.36" xlink:href="#linear-gradient"></linearGradient><linearGradient id="linear-gradient-7" x1="250.92" y1="115.43" x2="163.83" y2="196.89" xlink:href="#linear-gradient"></linearGradient><linearGradient id="linear-gradient-8" x1="161.94" y1="19.5" x2="218.49" y2="118.04" xlink:href="#linear-gradient"></linearGradient><linearGradient id="linear-gradient-9" x1="228.68" y1="183.88" x2="231.17" y2="212.15" xlink:href="#linear-gradient"></linearGradient><linearGradient id="linear-gradient-10" x1="150.35" y1="130.58" x2="180.49" y2="115.92" xlink:href="#linear-gradient"></linearGradient><linearGradient id="linear-gradient-11" x1="155.1" y1="85.39" x2="186.7" y2="137.57" xlink:href="#linear-gradient"></linearGradient><linearGradient id="linear-gradient-12" x1="177.97" y1="100.29" x2="184.1" y2="79.71" xlink:href="#linear-gradient"></linearGradient><linearGradient id="linear-gradient-13" x1="197" y1="95.64" x2="186.82" y2="80.26" xlink:href="#linear-gradient"></linearGradient><linearGradient id="linear-gradient-14" x1="173.19" y1="207.75" x2="221.62" y2="143.56" xlink:href="#linear-gradient"></linearGradient><linearGradient id="linear-gradient-15" x1="169.08" y1="80.29" x2="182.56" y2="97.77" xlink:href="#linear-gradient"></linearGradient></defs><title>20</title><path d="M186.56,19.44c-4.68-.5-9.39-.74-14.08-.86-30.5-.76-62.82,4.28-86.35,23.69-20,16.53-31.3,41.61-37.31,66.89-2.53,10.62-4.25,21.45-7.57,31.84C30.78,173.76,2.63,194.79,6.16,232.13c1.56,16.4,9.28,32.38,22,42.8,19.2,15.68,46,17,70.78,17.55l122.28,2.87c35.34.83,69.23-2.9,104-4.65,28-1.41,57.72-13.82,69.22-41.3,6.9-16.5,6-35.14,4-52.92-1.52-13.34-3.62-26.74-8.39-39.3-13.66-35.93-47.4-60.48-82.4-76.38-14.74-6.7-30.07-12.28-43.9-20.71C244.64,48.45,228.52,31.48,207.45,24A90.15,90.15,0,0,0,186.56,19.44Z" transform="translate(-5.86 -18.51)" fill="#2196F3" opacity="0.18" style="isolation: isolate;"></path><path d="M218.45,258.19c0,11-24.9,20-55.61,20s-55.62-8.94-55.62-20V226c9.24-6.43,34.07,12.23,55.62,12.23,23,0,45.91-22.16,54.35-15C220,225.63,218.45,255.44,218.45,258.19Z" transform="translate(-5.86 -18.51)" fill="#2196F3"></path><path d="M218.46,258.2c0,11-24.9,20-55.62,20a140.6,140.6,0,0,1-25.67-2.26c-17.81-3.32-29.95-10-29.95-17.7V226a7.46,7.46,0,0,1,2.4-1.07c4.29-1,10.54.91,17.78,3.64,10.7,4,23.57,9.65,35.44,9.65,23,0,45.92-22.15,54.36-15,0,0,0,0,0,0C220,225.89,218.46,255.46,218.46,258.2Z" transform="translate(-5.86 -18.51)" fill="url(#linear-gradient)"></path><ellipse cx="156.98" cy="207.49" rx="55.61" ry="19.97" fill="#2196F3"></ellipse><ellipse cx="156.98" cy="207.49" rx="38.18" ry="13.71" fill="url(#linear-gradient-2)"></ellipse><path d="M218.45,219.13c0,11-24.9,20-55.61,20s-55.62-8.93-55.62-20V186.94c9.24-6.44,34.07,12.22,55.62,12.22,23,0,45.91-22.15,54.35-15C220,186.57,218.45,216.37,218.45,219.13Z" transform="translate(-5.86 -18.51)" fill="#2196F3"></path><path d="M218.46,219.13a8.1,8.1,0,0,1-1.22,4.16c-5.32,9-27.64,15.8-54.4,15.8A140.1,140.1,0,0,1,136,236.61c-12.56-2.48-22.15-6.65-26.38-11.68a9,9,0,0,1-2.4-5.8V187a7.46,7.46,0,0,1,2.4-1.07c4.62-1.13,11.49,1.22,19.44,4.23,10.35,3.95,22.51,9,33.78,9,23,0,45.92-22.15,54.36-15a.1.1,0,0,1,0,.07C220,187.08,218.46,216.38,218.46,219.13Z" transform="translate(-5.86 -18.51)" fill="url(#linear-gradient-3)"></path><ellipse cx="156.98" cy="168.43" rx="55.61" ry="19.97" fill="#2196F3"></ellipse><ellipse cx="156.98" cy="168.43" rx="38.18" ry="13.71" fill="url(#linear-gradient-4)"></ellipse><path d="M218.45,180.09c0,11-24.9,20-55.61,20s-55.62-8.94-55.62-20V147.9c9.24-6.44,34.07,12.22,55.62,12.22,23,0,45.91-22.15,54.35-15C220,147.53,218.45,177.33,218.45,180.09Z" transform="translate(-5.86 -18.51)" fill="#2196F3"></path><path d="M218.46,180.08a8.16,8.16,0,0,1-1.22,4.17c-5.32,9-27.64,15.81-54.4,15.81a136.36,136.36,0,0,1-28.62-2.86c-11.69-2.5-20.57-6.53-24.6-11.32a9,9,0,0,1-2.4-5.8V147.9c9.24-6.45,34.07,12.22,55.62,12.22,23,0,45.92-22.15,54.36-15C220,147.52,218.46,177.33,218.46,180.08Z" transform="translate(-5.86 -18.51)" fill="url(#linear-gradient-5)"></path><ellipse cx="156.98" cy="129.39" rx="55.61" ry="19.97" fill="#2196F3"></ellipse><ellipse cx="156.98" cy="129.39" rx="38.18" ry="13.71" fill="url(#linear-gradient-6)"></ellipse><path d="M159.33,142.07c-2.71.33-6.15.92-6.72,3.58-.37,1.73.86,3.46,2.42,4.28a12.94,12.94,0,0,0,5.14,1,160.72,160.72,0,0,1,32.15,5.53l-5,7.82,11.37,1.52a5.59,5.59,0,0,1,3,1,5.51,5.51,0,0,1,1.4,2.52c3.36,10.18,4.61,20.91,6,31.55a15.19,15.19,0,0,0,1.72,6.2c1.14,1.84,3.36,3.2,5.45,2.64,3.56-.94,3.85-5.84,3.29-9.48a272.13,272.13,0,0,0-9.65-41.21,20.84,20.84,0,0,0-2.16-5.12,21.17,21.17,0,0,0-5.8-5.43c-6.41-4.58-13.62-9.09-21.59-10.13C172.5,137.37,166.86,141.14,159.33,142.07Z" transform="translate(-5.86 -18.51)" fill="url(#linear-gradient-7)"></path><path d="M227.89,91.93s-15.9,21.7-21.3,21.5-17.35-3.85-17.35-3.85l-1.35-12.43S200,104,203.48,103.47s18.5-16,18.5-16l5.14,3.88Z" transform="translate(-5.86 -18.51)" fill="#fff"></path><path d="M227.89,91.93s-15.9,21.7-21.3,21.5-17.35-3.85-17.35-3.85l1.55-3.52s12.74,5.73,16.22,3.74S225.12,91,225.12,91l2,.35Z" transform="translate(-5.86 -18.51)" fill="url(#linear-gradient-8)"></path><path d="M218.92,208.1a3.5,3.5,0,0,0,.84,1.33,4.65,4.65,0,0,0,1.75.91,45.87,45.87,0,0,0,16.42,2.52c1.84-.05,4-.41,4.83-2.05a3.61,3.61,0,0,0-.37-3.54,8.34,8.34,0,0,0-2.81-2.39,23.41,23.41,0,0,0-8.74-2.95,5.16,5.16,0,0,1-3.17-1.08,11,11,0,0,0-.82-1c-1.35-1.14-5.44-.79-6.74.44C218.3,202,218.09,206,218.92,208.1Z" transform="translate(-5.86 -18.51)" fill="#2196F3"></path><path d="M218.92,208.1a3.5,3.5,0,0,0,.84,1.33,4.65,4.65,0,0,0,1.75.91,45.87,45.87,0,0,0,16.42,2.52c1.84-.05,4-.41,4.83-2.05a3.61,3.61,0,0,0-.37-3.54,8.34,8.34,0,0,0-2.81-2.39,23.41,23.41,0,0,0-8.74-2.95,5.16,5.16,0,0,1-3.17-1.08,11,11,0,0,0-.82-1c-1.35-1.14-5.44-.79-6.74.44C218.3,202,218.09,206,218.92,208.1Z" transform="translate(-5.86 -18.51)" fill="url(#linear-gradient-9)"></path><path d="M212.68,147.32c-.08-.06-4.35,3.83-4.73,4.16-1.45,1.24-3.55,3.94-5.46,3.6-4.59-.82-9.14-3-13.44-4.67l-7.19-2.88a18.22,18.22,0,0,1-4-2,6.17,6.17,0,0,1-2.55-3.53,6.23,6.23,0,0,1,2.17-5.74,21.63,21.63,0,0,1,8.24-4.23c2.13-.6,4.47,1.57,6.29,2.48l10.15,5.65c2.1,1.17,4,2.39,5.82,3.61S211.26,146.15,212.68,147.32Z" transform="translate(-5.86 -18.51)" fill="#282328"></path><path d="M229.47,199.44c-6.56,4.83-12.65,0-12.65,0l-2.33-27a36.86,36.86,0,0,0-2.46-6.4,30.15,30.15,0,0,0-8.55-10.83c3.37-2.81,6.72-5.67,9.2-7.93a57.27,57.27,0,0,1,9.39,9.66,24.07,24.07,0,0,1,3.19,5.36C226.34,165.46,229.47,199.44,229.47,199.44Z" transform="translate(-5.86 -18.51)" fill="#282328"></path><path d="M197.31,130.91c-.23.42-1.78,1-2.22,1.22-.82.48-1.59,1-2.37,1.46-3,1.9-5.91,3.94-9.24,5.2a19.69,19.69,0,0,1-3,.91,19.1,19.1,0,0,1-2,.29c-.82.09-1.66.13-2.5.18-1.24.06-2.64.09-3.52-.8a4.5,4.5,0,0,1-1-2.66c-.22-1.48-.53-3-.84-4.45v0c-1-4.41-2.1-8.78-2.72-13.29-.67-4.88-1.42-10.06-1-15,0,0,0-.11,0-.15.62-6.45,6.72-8.27,6.72-8.27s2.43-1.61,10-1.5,8.21,17.45,8.64,21c.53,4.57,2.72,9.22,4.34,13.47C196.82,129,197.59,130.38,197.31,130.91Z" transform="translate(-5.86 -18.51)" fill="#fff"></path><path d="M178.72,118.09c-.93-2.47-1.13-5.17-2.16-7.6a4,4,0,0,0-1-1.57,1.76,1.76,0,0,0-1.76-.37c-.8.32-1.09,1.3-1.24,2.15a31.81,31.81,0,0,0-.43,7.67,16.74,16.74,0,0,0,2.76,8.84,1.36,1.36,0,0,0,1.88.56,53.21,53.21,0,0,0,9.33-4c-1.07-1.12-3.11-.84-4.4-1.71A8.35,8.35,0,0,1,178.72,118.09Z" transform="translate(-5.86 -18.51)" fill="url(#linear-gradient-10)"></path><path d="M177.48,136.93a17,17,0,0,0,1,3.06c-.82.09-1.66.13-2.5.18-1.24.06-2.64.09-3.52-.8a4.5,4.5,0,0,1-1-2.66c-.22-1.48-.53-3-.84-4.45v0l0-.27,2.15-3.52,22.06-3,1.84,3C196.31,131.11,177.15,135.36,177.48,136.93Z" transform="translate(-5.86 -18.51)" fill="url(#linear-gradient-11)"></path><path d="M192,89.65a24.37,24.37,0,0,1-.56,4.14,3.2,3.2,0,0,1-1,2,2.91,2.91,0,0,1-1.39.49,9.2,9.2,0,0,1-5.07-.78,2.51,2.51,0,0,0-.56-.2.74.74,0,0,0-.18,0h0a.5.5,0,0,0-.4.16.79.79,0,0,0-.24.51c-.18,1.19.48,2.37.51,3.56v0a.83.83,0,0,1-.2.66,1,1,0,0,1-.67.24c-2.65.23-5.27-1.06-7.35-2.61a3,3,0,0,1-.93-.91,3.07,3.07,0,0,1-.24-1.42,63.76,63.76,0,0,0-.27-9.68,13.38,13.38,0,0,1-.31-3.14,8.79,8.79,0,0,1,1.62-3.92A9.45,9.45,0,0,1,177,76.05a10.29,10.29,0,0,1,5.14-1.49c1.77-.13,4.47-.26,6,1s2.15,3.9,2.68,5.54A25.27,25.27,0,0,1,192,89.65Z" transform="translate(-5.86 -18.51)" fill="#ffbbab"></path><path d="M187.32,76.4a5.13,5.13,0,0,1-5.06,4.9c-.68,0-1.51-.1-1.87.47-.25.4-.13,1-.4,1.35-.46.65-1.5.28-2.23.59a2,2,0,0,0-1,1.84,16.17,16.17,0,0,1,0,2.2c-.34.12-.68-.19-.83-.51a3.12,3.12,0,0,0-.49-.94,1.06,1.06,0,0,0-1.54.29,1.64,1.64,0,0,0,.11,1.69,3.85,3.85,0,0,0,1.33,1.17l-1.7,1L171,83.92c-.5-1.25-1-2.76-.18-3.85a1.1,1.1,0,0,0,.32-.61,1,1,0,0,0-.3-.59,4.66,4.66,0,0,1,2.85-7.52c.52-.08,1.06-.08,1.57-.21,1.23-.3,2.17-1.3,3.31-1.86a10.22,10.22,0,0,1,4.44-.69c2.89,0,3.77,1.8,5.53,3.76a3.07,3.07,0,0,1,.95,2.5C189.42,75.85,188.46,77.07,187.32,76.4Z" transform="translate(-5.86 -18.51)" fill="#fc682d"></path><path d="M233.52,146c-.38.73-5.45,5.49-11.45,11-3.26,3-6.8,6.18-10,9.1a79.43,79.43,0,0,1-8.55,7l-11.12-8.68s4.21-3.37,11.12-9.17c3.37-2.81,6.72-5.67,9.2-7.93,2.21-2,3.74-3.56,4-4.16.62-1.46-3.47-.2-8.66.64-1.79-1.22-3.72-2.44-5.82-3.61L192,134.54l5.63-3.32s24.94-.22,31,4.3S234.45,144.09,233.52,146Z" transform="translate(-5.86 -18.51)" fill="#473f47"></path><path d="M188.9,166.41l-.57.87c-.81,1.28-2,2.62-2.23,4.16-.22,1.33,1.1,1.46,1.49,2.75a6.49,6.49,0,0,0,4,3.8c1.77.71,3.68,1,5.48,1.61s3.4,1.5,5.2,1.93,3.74,1.48,5.1.22c.94-.87,1.07-2.14,1.44-3.27a6.05,6.05,0,0,0,.17-3.83,11.71,11.71,0,0,0-2.37-4,6.56,6.56,0,0,0-2.14-1.86,11.64,11.64,0,0,0-3.55-.6,9.82,9.82,0,0,1-6.31-3.5,3.15,3.15,0,0,0-1.09-1,2.26,2.26,0,0,0-1.65.12A6.29,6.29,0,0,0,188.9,166.41Z" transform="translate(-5.86 -18.51)" fill="#2196F3"></path><path d="M166.89,103.77s-8.06,34.4,8.93,30,21.83-8.58,21.83-8.58l-2.34-7.33s-17.93,7.49-19.8,5.7.94-17.47.94-17.47a8,8,0,0,0-.86-4.83C173.43,97.93,168.86,95.64,166.89,103.77Z" transform="translate(-5.86 -18.51)" fill="#fff"></path><path d="M170.84,84.77a3.46,3.46,0,0,0,0,2.81,5.84,5.84,0,0,0,2.47,2h4.78l6.15.49,10.06-5.3s2.18-5.14,0-6.62a5.16,5.16,0,0,0-4.54-.52s2.05,2.7-9.77,5.49A79.19,79.19,0,0,1,170.84,84.77Z" transform="translate(-5.86 -18.51)" fill="#2196F3"></path><path d="M170.84,84.77a3.46,3.46,0,0,0,0,2.81,5.84,5.84,0,0,0,2.47,2h4.78l6.15.49,10.06-5.3s2.18-5.14,0-6.62a5.16,5.16,0,0,0-4.54-.52s2.05,2.7-9.77,5.49A79.19,79.19,0,0,1,170.84,84.77Z" transform="translate(-5.86 -18.51)" fill="url(#linear-gradient-12)"></path><path d="M191.61,80.14,184,83.32c-.58.24-1.24.57-1.38,1.19a2.1,2.1,0,0,0,.14,1.07l1.49,4.52a63,63,0,0,0,7.4-2.1,6.66,6.66,0,0,0,3.37-2c1.17-1.59.81-3.79.4-5.72-.15-.73-.43-1.79-1.26-1.55-.36.1-.83.62-1.19.82S192.08,79.94,191.61,80.14Z" transform="translate(-5.86 -18.51)" fill="#2196F3"></path><path d="M191.61,80.14,184,83.32c-.58.24-1.24.57-1.38,1.19a2.1,2.1,0,0,0,.14,1.07l1.49,4.52a63,63,0,0,0,7.4-2.1,6.66,6.66,0,0,0,3.37-2c1.17-1.59.81-3.79.4-5.72-.15-.73-.43-1.79-1.26-1.55-.36.1-.83.62-1.19.82S192.08,79.94,191.61,80.14Z" transform="translate(-5.86 -18.51)" fill="url(#linear-gradient-13)"></path><path d="M203.08,173.93a9,9,0,0,0-3.86-.63,9.41,9.41,0,0,1-2.65-.12,8,8,0,0,1-2.56-1.53c-1.07-.83-2.18-1.6-3.32-2.32a3.78,3.78,0,0,0-1.62-.67,2.78,2.78,0,0,0-2.48,1.67,4.5,4.5,0,0,0-.2,3.61,6.72,6.72,0,0,0,2.65,3,8.49,8.49,0,0,0,3.38,1.46c.65.11,1.32.12,2,.26,1.62.38,2.9,1.58,4.31,2.46a11.62,11.62,0,0,0,5.75,1.74c1.27,0,2.72-.24,3.38-1.33,1-1.74-.51-3.16-1.5-4.41S204.62,174.61,203.08,173.93Z" transform="translate(-5.86 -18.51)" fill="#2196F3"></path><path d="M203.08,173.93a9,9,0,0,0-3.86-.63,9.41,9.41,0,0,1-2.65-.12,8,8,0,0,1-2.56-1.53c-1.07-.83-2.18-1.6-3.32-2.32a3.78,3.78,0,0,0-1.62-.67,2.78,2.78,0,0,0-2.48,1.67,4.5,4.5,0,0,0-.2,3.61,6.72,6.72,0,0,0,2.65,3,8.49,8.49,0,0,0,3.38,1.46c.65.11,1.32.12,2,.26,1.62.38,2.9,1.58,4.31,2.46a11.62,11.62,0,0,0,5.75,1.74c1.27,0,2.72-.24,3.38-1.33,1-1.74-.51-3.16-1.5-4.41S204.62,174.61,203.08,173.93Z" transform="translate(-5.86 -18.51)" fill="url(#linear-gradient-14)"></path><path d="M182.49,95.94c-.18,1.19.48,2.37.51,3.56v0a3.1,3.1,0,0,1-1.22-.45,7.85,7.85,0,0,1-1.53-1.24,3.39,3.39,0,0,1-.77-.91,3.1,3.1,0,0,1-.32-.93,1.26,1.26,0,0,1,.2-1c.31-.34.85-.27,1.31-.18s1.2.24,1.8.33a2.68,2.68,0,0,1,.66.11.5.5,0,0,0-.4.16A.79.79,0,0,0,182.49,95.94Z" transform="translate(-5.86 -18.51)" fill="url(#linear-gradient-15)"></path><path d="M225.57,81.31A13.79,13.79,0,0,1,227,79.42a14.58,14.58,0,0,1,1.57-1.36,2.81,2.81,0,0,1,1.49-.74,1.44,1.44,0,0,1,1.43,1.14,3.11,3.11,0,0,1-.07,1.05c-.29,1.83-.08,3.7-.23,5.54a6.54,6.54,0,0,1-2.25,4.89A6.81,6.81,0,0,1,225.13,91a2.76,2.76,0,0,1-1.81-.38c-1.41-1.07-.9-3.14-.38-4.5A24.69,24.69,0,0,1,225.57,81.31Z" transform="translate(-5.86 -18.51)" fill="#ffbbab"></path><path d="M197.4,116.54c1.66-2,3.62-4,6.13-4.75a1.68,1.68,0,0,1,1.06-.05,1.34,1.34,0,0,1,.54,1.72,9.06,9.06,0,0,1-1.08,1.68c-1,1.6-.94,3.64-1.39,5.48a5.75,5.75,0,0,1-1.79,3.14,3.26,3.26,0,0,1-3.43.54c-1.3-.64-2-2.42-2.16-3.8C195.12,118.92,196.45,117.7,197.4,116.54Z" transform="translate(-5.86 -18.51)" fill="#ffbbab"></path><path d="M137.17,275.9c-17.81-3.32-29.95-10-29.95-17.7V226a7.46,7.46,0,0,1,2.4-1.07,9,9,0,0,1-2.4-5.8V187a7.46,7.46,0,0,1,2.4-1.07,9,9,0,0,1-2.4-5.8V151.49l18.61,11.31s-1.42,17.08,3.23,27.31c1.38,3,3.28,5.48,5.92,6.69l-.76.4-8.61,4.57s-4.48,16.34,1.79,26.8a16.62,16.62,0,0,0,9.77,7.5l-1.17.54L126.25,241S123.75,272.69,137.17,275.9Z" transform="translate(-5.86 -18.51)" fill="#fff" opacity="0.15"></path><polygon points="300.97 87.48 232.21 121.18 232.21 50.45 300.97 16.75 300.97 87.48" fill="#2196F3"></polygon><polygon points="135.74 87.48 66.99 121.18 66.99 50.45 135.74 16.75 135.74 87.48" fill="#2196F3" opacity="0.35"></polygon><polygon points="329.18 175.79 260.42 209.49 260.42 138.75 329.18 105.06 329.18 175.79" fill="#fff"></polygon><path d="M288.4,182.77a4.74,4.74,0,0,1-5.5-7.56,5.1,5.1,0,0,1,1.29-.94,4.74,4.74,0,0,1,4.21,8.5Z" transform="translate(-5.86 -18.51)" fill="#2196F3" opacity="0.82" style="isolation: isolate;"></path><path d="M289.6,180.58a4.73,4.73,0,0,1-6.34-2.15,4.65,4.65,0,0,1-.36-3.22,5.1,5.1,0,0,1,1.29-.94,4.74,4.74,0,0,1,6.71,5.36A4.79,4.79,0,0,1,289.6,180.58Z" transform="translate(-5.86 -18.51)" fill="#fff" opacity="0.55" style="isolation: isolate;"></path><path d="M299.77,171.06a2.37,2.37,0,0,1-2.75-3.78,2.21,2.21,0,0,1,.65-.47,2.36,2.36,0,0,1,3.17,1.08,2.3,2.3,0,0,1,.18,1.6A2.37,2.37,0,0,1,299.77,171.06Z" transform="translate(-5.86 -18.51)" fill="#2196F3" opacity="0.82" style="isolation: isolate;"></path><path d="M300.37,170a2.37,2.37,0,0,1-3.17-1.07,2.33,2.33,0,0,1-.18-1.61,2.21,2.21,0,0,1,.65-.47,2.36,2.36,0,0,1,3.17,1.08,2.3,2.3,0,0,1,.18,1.6A2.21,2.21,0,0,1,300.37,170Z" transform="translate(-5.86 -18.51)" fill="#fff" opacity="0.55" style="isolation: isolate;"></path><path d="M318.44,185.79a2.37,2.37,0,0,1-2.75-3.77,2.21,2.21,0,0,1,.65-.47,2.37,2.37,0,0,1,3.17,1.07,2.32,2.32,0,0,1,.18,1.61A2.37,2.37,0,0,1,318.44,185.79Z" transform="translate(-5.86 -18.51)" fill="#2196F3" opacity="0.82" style="isolation: isolate;"></path><path d="M319,184.7a2.36,2.36,0,0,1-3.17-1.08,2.3,2.3,0,0,1-.18-1.6,2.21,2.21,0,0,1,.65-.47,2.37,2.37,0,0,1,3.17,1.07,2.32,2.32,0,0,1,.18,1.61A2.64,2.64,0,0,1,319,184.7Z" transform="translate(-5.86 -18.51)" fill="#fff" opacity="0.55" style="isolation: isolate;"></path><g opacity="0.82" style="isolation: isolate;"><polygon points="283.65 163.28 283.59 162.76 297.86 161.08 293.91 151.99 294.39 151.78 298.62 161.52 283.65 163.28" fill="#2196F3"></polygon></g><polygon points="301.05 167.58 298 161.41 298.47 161.18 301.34 166.99 310.01 165.23 310.11 165.75 301.05 167.58" fill="#2196F3"></polygon></svg>