<svg id="Layer_1" data-name="Layer 1" xmlns="http://www.w3.org/2000/svg" xmlns:xlink="http://www.w3.org/1999/xlink" viewBox="0 0 489.22 276.83" width="406" height="306" class="illustration"><defs><linearGradient id="linear-gradient" x1="22.94" y1="193.84" x2="282.81" y2="191.56" gradientUnits="userSpaceOnUse"><stop offset="0" stop-opacity="0"></stop><stop offset="0.99"></stop></linearGradient><linearGradient id="linear-gradient-2" x1="417.75" y1="297.92" x2="392.73" y2="286.55" xlink:href="#linear-gradient"></linearGradient><linearGradient id="linear-gradient-3" x1="376.53" y1="107.19" x2="226.98" y2="191.91" gradientTransform="translate(652.68 271.24) rotate(180)" xlink:href="#linear-gradient"></linearGradient><linearGradient id="linear-gradient-4" x1="352.11" y1="173.71" x2="378.48" y2="173.71" xlink:href="#linear-gradient"></linearGradient><linearGradient id="linear-gradient-5" x1="367.73" y1="134.48" x2="403.63" y2="134.48" gradientUnits="userSpaceOnUse"><stop offset="0" stop-color="#e5c5d5"></stop><stop offset="0.42" stop-color="#ead4d1"></stop><stop offset="1" stop-color="#f0e9cb"></stop></linearGradient><linearGradient id="linear-gradient-6" x1="377.15" y1="122.97" x2="431.36" y2="122.97" xlink:href="#linear-gradient"></linearGradient><linearGradient id="linear-gradient-7" x1="318.28" y1="187.78" x2="344.15" y2="161.63" xlink:href="#linear-gradient"></linearGradient><linearGradient id="linear-gradient-8" x1="347.99" y1="151.02" x2="359.02" y2="151.02" xlink:href="#linear-gradient-5"></linearGradient><linearGradient id="linear-gradient-9" x1="304.79" y1="156.39" x2="318.33" y2="156.39" xlink:href="#linear-gradient-5"></linearGradient><linearGradient id="linear-gradient-10" x1="393.65" y1="138.24" x2="436.48" y2="162.88" xlink:href="#linear-gradient-5"></linearGradient><linearGradient id="linear-gradient-11" x1="397.8" y1="189.32" x2="419.34" y2="175.6" xlink:href="#linear-gradient"></linearGradient><linearGradient id="linear-gradient-12" x1="436.68" y1="155.69" x2="376.09" y2="228.53" xlink:href="#linear-gradient"></linearGradient><linearGradient id="linear-gradient-13" x1="438.41" y1="155.89" x2="392.57" y2="211" xlink:href="#linear-gradient"></linearGradient><linearGradient id="linear-gradient-14" x1="382.15" y1="242.88" x2="310.12" y2="214.45" xlink:href="#linear-gradient"></linearGradient><linearGradient id="linear-gradient-15" x1="373.47" y1="293.78" x2="304.48" y2="289.61" gradientUnits="userSpaceOnUse"><stop offset="0.02" stop-color="#fff" stop-opacity="0"></stop><stop offset="0.58" stop-color="#fff" stop-opacity="0.39"></stop><stop offset="0.68" stop-color="#fff" stop-opacity="0.68"></stop><stop offset="1" stop-color="#fff"></stop></linearGradient></defs><title>AR</title><path d="M362.21,314.48c-23.22,1.74-45.67-7.41-68.32-12.8a215.78,215.78,0,0,0-109.51,2.67c-38.1-6.73-38.26,9.2-79.66,17.34-40.63,8-75.42-31.91-82.27-40.51-3.68-4.6-6.2-10-8.68-15.33C8.33,254.17,2.78,242,2.93,229.12c.11-10,3.66-19.58,7.16-28.94,11.57-30.89,26.08-65,56.54-77.64,17.54-7.3,37.25-6,56.19-7.34,75.46-5.5,141.86-55.06,217.06-63.4,17.77-2,35.7-1.58,53.56-1,10.74.35,21.73.81,31.7,4.81,11.1,4.46,20.09,13,27.8,22.12a166.76,166.76,0,0,1,1.22,213.39,72.64,72.64,0,0,1-25.43,19.62C408.18,320.69,385,312.76,362.21,314.48Z" transform="translate(-2.92 -47)" fill="#2196F3" opacity="0.18" style="isolation: isolate;"></path><path d="M327.46,109.34,238.34,53.86a45.11,45.11,0,0,0-58.06,8.76c-9.21,10.73-16.7,24.34-16,39.89,1.71,38.67,6.83,51.18,6.83,51.18L182,159.12a48.71,48.71,0,0,0,38.37,2.25l103.16-37.25Z" transform="translate(-2.92 -47)" fill="#2196F3" opacity="0.18" style="isolation: isolate;"></path><path d="M92.12,323.83l8.43-1,74.67-15V87.62a16.25,16.25,0,0,0-13.15-15.94l-45.52-8.84A20.6,20.6,0,0,0,92,83.06Z" transform="translate(-2.92 -47)" fill="#2196F3"></path><path d="M92.12,323.83l8.43-1,74.67-15V87.62a16.25,16.25,0,0,0-13.15-15.94l-45.52-8.84A20.6,20.6,0,0,0,92,83.06Z" transform="translate(-2.92 -47)" fill="url(#linear-gradient)"></path><path d="M377.34,275.85A188.52,188.52,0,0,1,392.1,313c.43,1.55,1,3.3,2.49,3.92a4.88,4.88,0,0,0,1.66.3,59.81,59.81,0,0,0,18.37-1.67c-1-4.32-.5-8.81-.35-13.23.43-12.53,2.85-16.67,1.3-33.72-.05-.48-7.77-4.12-8.21-4.31a1.87,1.87,0,0,0-.85-.1l-10.37.44c-4.53.19-9.48.55-12.8,3.64-2.71,2.51-3.75,6.42-3.6,10.11s1.34,7.24,2.53,10.73" transform="translate(-2.92 -47)" fill="#3e3e54"></path><path d="M377.34,275.85A188.52,188.52,0,0,1,392.1,313c.43,1.55,1,3.3,2.49,3.92a4.88,4.88,0,0,0,1.66.3,59.81,59.81,0,0,0,18.37-1.67c-1-4.32-.5-8.81-.35-13.23.43-12.53,2.66-17.23,1-34.86,0-.49-7.42-3-7.86-3.17a1.87,1.87,0,0,0-.85-.1l-10.37.44c-4.53.19-9.48.55-12.8,3.64-2.71,2.51-3.75,6.42-3.6,10.11s1.34,7.24,2.53,10.73" transform="translate(-2.92 -47)" fill="url(#linear-gradient-2)"></path><path d="M357.18,317c4.21-.47,17.83-.35,22-.82a204.53,204.53,0,0,0,8.94-22.79c1.57-4.59,4.38-12.87,7-16.94a1.91,1.91,0,0,0,.41-1.21,1.87,1.87,0,0,0-.74-1.06c-5.09-4.56-10.21-9.15-16-12.73-4-2.45-12.84-7.59-17.8-6.15-3.72,1.08-3.1,14-3.38,17.92A359.3,359.3,0,0,0,357.18,317Z" transform="translate(-2.92 -47)" fill="#3e3e54"></path><rect x="306.15" y="106.14" width="40.39" height="58.96" rx="4.6" transform="translate(649.76 224.24) rotate(-180)" fill="#2196F3"></rect><rect x="306.15" y="106.14" width="40.39" height="58.96" rx="4.6" transform="translate(649.76 224.24) rotate(-180)" fill="url(#linear-gradient-3)"></rect><rect x="307.71" y="106.14" width="40.39" height="58.96" rx="4.6" transform="translate(652.88 224.24) rotate(-180)" fill="#2196F3"></rect><rect x="312.42" y="110.25" width="32.31" height="48.46" rx="3.73" transform="translate(654.21 221.96) rotate(-180)" fill="#fff"></rect><path d="M361.21,159.21a3.3,3.3,0,0,0-1.17-1.36,3.44,3.44,0,0,0-2.56.06c-2,.6-4.36,1.43-5.1,3.43a6,6,0,0,0-.25,2.43c.37,7.5,3.93,14.5,8.24,20.64a15.68,15.68,0,0,0,3.86,4.17,6.07,6.07,0,0,0,5.43.9c1.86-.7,3-2.51,4-4.22,1.26-2.15,4.89-6.67,4.77-9.21s-3.17-2.54-5.07-3.05C366.38,171.11,364.45,165,361.21,159.21Z" transform="translate(-2.92 -47)" fill="#2196F3"></path><path d="M361.21,159.21a3.3,3.3,0,0,0-1.17-1.36,3.44,3.44,0,0,0-2.56.06c-2,.6-4.36,1.43-5.1,3.43a6,6,0,0,0-.25,2.43c.37,7.5,3.93,14.5,8.24,20.64a15.68,15.68,0,0,0,3.86,4.17,6.07,6.07,0,0,0,5.43.9c1.86-.7,3-2.51,4-4.22,1.26-2.15,4.89-6.67,4.77-9.21s-3.17-2.54-5.07-3.05C366.38,171.11,364.45,165,361.21,159.21Z" transform="translate(-2.92 -47)" fill="url(#linear-gradient-4)"></path><path d="M367.74,126.7a20.06,20.06,0,0,0,.89,3.27c.69,2.64,0,5.42-.23,8.14s.09,5.81,2.19,7.55c2.33,1.94,5.86,1.44,8.54,2.86,3.27,1.75,4.45,5.9,4.42,9.61,0,1.73-.17,3.62.87,5a6.31,6.31,0,0,0,3.71,1.93A36.84,36.84,0,0,0,396,166a6.4,6.4,0,0,0,3.57-.73,5.81,5.81,0,0,0,2-2.77c2.43-5.83,1.48-12.43,1.69-18.74.12-3.66.65-7.34.07-11a35.11,35.11,0,0,0-2.41-7.57,44.57,44.57,0,0,0-5.7-10.82c-2.51-3.22-8.2-10.87-12.25-11.43-4.67-.65-8.42,7-10.33,11.57-.86,2-1,3.88-2.26,5.85S367.55,124.28,367.74,126.7Z" transform="translate(-2.92 -47)" fill="url(#linear-gradient-5)"></path><path d="M389.36,94.9a21,21,0,0,1,14.56,2.57A37.74,37.74,0,0,1,415,107.62c2.88,3.76,5.67,8.1,10.17,9.55,1.22.38,2.5.54,3.68,1a3.84,3.84,0,0,1,2.49,2.69c.3,1.91-1.51,3.42-3.11,4.5,2.27.36,3.11,3.51,2,5.53s-3.31,3.12-5.4,4.06a3.48,3.48,0,0,1-4.1,5.62c1.43,1.71,0,4.53-2.09,5.29s-4.41.11-6.53-.54c.27,2.91-2.35,5.52-5.23,6s-5.8-.74-8.17-2.45-4.32-3.92-6.54-5.81a14.17,14.17,0,0,0,4.29-7.91,5.59,5.59,0,0,0-.35-3.66A2.61,2.61,0,0,0,393,130.2c-1.07.47-1.48,1.73-2,2.78s-1.61,2.1-2.7,1.68c-.84-.32-1.14-1.31-1.32-2.19-1.1-5.62-1.12-11.87-4.77-16.28-1.3-1.58-3-2.83-4-4.61C374.14,104.54,383.15,96.27,389.36,94.9Z" transform="translate(-2.92 -47)" fill="#3e3e54"></path><path d="M389.36,94.9a21,21,0,0,1,14.56,2.57A37.74,37.74,0,0,1,415,107.62c2.88,3.76,5.67,8.1,10.17,9.55,1.22.38,2.5.54,3.68,1a3.84,3.84,0,0,1,2.49,2.69c.3,1.91-1.51,3.42-3.11,4.5,2.27.36,3.11,3.51,2,5.53s-3.31,3.12-5.4,4.06a3.48,3.48,0,0,1-4.1,5.62c1.43,1.71,0,4.53-2.09,5.29s-4.41.11-6.53-.54c.27,2.91-2.35,5.52-5.23,6s-5.8-.74-8.17-2.45-4.32-3.92-6.54-5.81a14.17,14.17,0,0,0,4.29-7.91,5.59,5.59,0,0,0-.35-3.66A2.61,2.61,0,0,0,393,130.2c-1.07.47-1.48,1.73-2,2.78s-1.61,2.1-2.7,1.68c-.84-.32-1.14-1.31-1.32-2.19-1.1-5.62-1.12-11.87-4.77-16.28-1.3-1.58-3-2.83-4-4.61C374.14,104.54,383.15,96.27,389.36,94.9Z" transform="translate(-2.92 -47)" fill="url(#linear-gradient-6)"></path><path d="M443.14,191c-1.1,5.73-4.85,12.22-10.68,11.93-3.22-.16-6.32-2.48-9.43-1.63.06,6.75-1.77,13.34-3.56,19.84-4.14,14.86.23,32.58-3.9,47.44-.57,2-19.58,7.64-24.37,6.45-2.81-.7-15.34-1.72-25.05-3.91h0c-6.77-1.53-12.17-3.62-11.94-6.56.95-12.33,6.7-42.83,7.65-55.16l-2.09,1a98.45,98.45,0,0,1-15.91,5.59c-4.52,1.18-9.9,1.83-13.35-1.32a15.45,15.45,0,0,1-3.21-5.09q-8.47-18.5-17-37a5.93,5.93,0,0,1-.76-2.57c0-3.33,4.65-4.33,6.64-7a10.29,10.29,0,0,1,1.34.83c2.64,1.92,4.41,4.94,6.23,7.71a82.84,82.84,0,0,0,15.38,17.61,4.25,4.25,0,0,0,1.9,1.12l.2,0a4.71,4.71,0,0,0,2.09-.42c10.92-4.05,19.56-11.36,27.44-19.74a29.8,29.8,0,0,1,24.72-9.23,19.15,19.15,0,0,0,3.17.1c2.45-.15,4.88-.4,7.32-.66a96.24,96.24,0,0,1,12.23-.7c6.54.16,13.32,1.78,18.19,6.15,4.59,4.1,6.84,10.07,7.28,16.28A34.79,34.79,0,0,1,443.14,191Z" transform="translate(-2.92 -47)" fill="#2196F3"></path><path d="M341.23,190.25a5.41,5.41,0,0,1-.68.35c-7.08,3.13-13.8-3.28-18-8L314,172.94c-1.11-1.26-2.29-2.87-1.73-4.45.71-2,3.63-2.23,4.77-4a6.2,6.2,0,0,1,.44-.69c2.64,1.92,4.41,4.94,6.23,7.71a82.84,82.84,0,0,0,15.38,17.61,4.25,4.25,0,0,0,1.9,1.12Z" transform="translate(-2.92 -47)" fill="url(#linear-gradient-7)"></path><path d="M357.33,150.89a19.67,19.67,0,0,0-7.39-10.29,2.65,2.65,0,0,0-.69,2.53c.16.9.56,1.75.71,2.65.66,3.76-2.84,7.46-1.77,11.12a7.31,7.31,0,0,0,2.91,3.64,2.88,2.88,0,0,0,3.92.25c1.19-.74,3.9-2.2,4-3.77.06-.87-.66-2.14-.88-3C357.87,153,357.64,151.93,357.33,150.89Z" transform="translate(-2.92 -47)" fill="url(#linear-gradient-8)"></path><path d="M309.61,150.72c.51.49,1.35,0,1.81-.52,1.24-1.47,1.76-3.46,3.06-4.89a3.27,3.27,0,0,1,1.79-1.11,1.78,1.78,0,0,1,1.86.76,3.07,3.07,0,0,1-.22,2.53c-1.49,4-1.62,8.4-1.58,12.68,0,2.38,0,4.92-1.26,6.9a7.54,7.54,0,0,1-2.2,2.12,2.31,2.31,0,0,1-2,.46,2.24,2.24,0,0,1-.88-.71c-4.23-4.84-5.74-11.66-5-18,.32-2.86-.95-5.94,1.18-7.87-.32,1.36.14,5.83,3.47,7.69" transform="translate(-2.92 -47)" fill="url(#linear-gradient-9)"></path><path d="M100.55,322.83l83.2-16.15V86.49A16.25,16.25,0,0,0,170.6,70.54L125.08,61.7a20.6,20.6,0,0,0-24.53,20.22Z" transform="translate(-2.92 -47)" fill="#2196F3"></path><path d="M393.38,133.45a1.56,1.56,0,0,1,1.09,1.52,4.25,4.25,0,0,1-.55,1.92,8.67,8.67,0,0,1-1.62,2.5,3.4,3.4,0,0,1-2.68,1.07,1.4,1.4,0,0,1-.72-.26,1.49,1.49,0,0,1-.52-1.09c-.15-1.43.82-2.35,1.76-3.25S392.06,133.17,393.38,133.45Z" transform="translate(-2.92 -47)" fill="url(#linear-gradient-10)"></path><path d="M423,201.29s-15-8.55-18.42-14.62-16.49-26.24-20.19-23.54-7.69-.14-13.65,7c-5.48,6.53,30.13,50.94,50.52,41.79C423.09,211.07,423,203.54,423,201.29Z" transform="translate(-2.92 -47)" fill="url(#linear-gradient-11)"></path><path d="M431.85,171c-2.81-.21-5.66.08-8.45-.37-4.91-.79-12.17-11.27-17-10.23-4,.85-7.17.44-11.94.43-.1,2.11,13.54,13.06,18.06,15.95s8,7.29,11.81,11.22,8.23,7.62,13.59,8.55c1.33.23,3,.14,3.66-1a3.71,3.71,0,0,0,.36-1.08,50.88,50.88,0,0,0,.8-16C442.14,173.26,436.55,171.31,431.85,171Z" transform="translate(-2.92 -47)" fill="url(#linear-gradient-12)"></path><path d="M443.67,182c-.1.62-.22,1.24-.35,1.85A3.41,3.41,0,0,1,443,185c-.68,1.16-2.33,1.26-3.65,1-5.37-.93-9.83-4.61-13.59-8.54s-7.22-8.28-11.82-11.22c-1.73-1.11-4.8-3.4-7.93-5.93a96.24,96.24,0,0,1,12.23-.7c6.54.16,13.32,1.78,18.19,6.15C441,169.85,443.23,175.82,443.67,182Z" transform="translate(-2.92 -47)" fill="url(#linear-gradient-13)"></path><path d="M375.84,211.09l-1.59,32.48c-.38,7.51-.75,15.06-2.46,22.38-.43,1.87-1.13,3.94-2.85,4.79a5.09,5.09,0,0,1-2.79.36h0c-6.77-1.53-12.17-3.62-11.94-6.56.95-12.33,6.7-42.83,7.65-55.16l-2.09,1a32.52,32.52,0,0,1,3.88-1.76c3.07-1.36,6.09-2.79,9.24-4a2,2,0,0,1,1.25-.16,1.63,1.63,0,0,1,.84.78C376,206.94,375.94,209.09,375.84,211.09Z" transform="translate(-2.92 -47)" fill="url(#linear-gradient-14)"></path><path d="M366.15,271.1l-.59,45.79-8.38.15s-1.29-43.08.14-48.48Z" transform="translate(-2.92 -47)" fill="url(#linear-gradient-15)"></path><polygon points="170.45 103.41 120.21 102.63 120.21 49.48 170.82 54.74 170.45 103.41" fill="#fff"></polygon><path d="M123.74,88.48l1.74.07a2.35,2.35,0,0,0,.23.86,1,1,0,0,0,.81.56.69.69,0,0,0,.6-.16.72.72,0,0,0,.21-.52.94.94,0,0,0-.2-.56,2.55,2.55,0,0,0-.93-.55A4.28,4.28,0,0,1,124.48,87a2.39,2.39,0,0,1-.51-1.53,2.3,2.3,0,0,1,.26-1.08,1.57,1.57,0,0,1,.8-.72,2.82,2.82,0,0,1,1.45-.11,2.78,2.78,0,0,1,1.71.76,2.94,2.94,0,0,1,.7,1.81l-1.7-.09a1.66,1.66,0,0,0-.29-.78.92.92,0,0,0-.6-.31.5.5,0,0,0-.64.52.52.52,0,0,0,.13.34,1.53,1.53,0,0,0,.61.36,7.34,7.34,0,0,1,1.7.88,2.31,2.31,0,0,1,.75.94,2.72,2.72,0,0,1,.23,1.15,2.66,2.66,0,0,1-.31,1.3,1.71,1.71,0,0,1-.87.83,2.61,2.61,0,0,1-1.41.15,2.84,2.84,0,0,1-2.09-1A3.89,3.89,0,0,1,123.74,88.48Z" transform="translate(-2.92 -47)" fill="#fff"></path><path d="M133.85,89.13l1.56.81a4,4,0,0,1-.49,1.37,2,2,0,0,1-.84.76,2.26,2.26,0,0,1-1.28.14,3.17,3.17,0,0,1-1.54-.54,3.36,3.36,0,0,1-1-1.38,5.73,5.73,0,0,1-.44-2.37,4.28,4.28,0,0,1,.77-2.79,2.28,2.28,0,0,1,2.17-.72,2.75,2.75,0,0,1,1.71.79,4.09,4.09,0,0,1,.93,1.89l-1.57.26a2.44,2.44,0,0,0-.18-.53,1.54,1.54,0,0,0-.36-.46,1,1,0,0,0-.49-.2.86.86,0,0,0-.93.52,3.06,3.06,0,0,0-.25,1.45,3.7,3.7,0,0,0,.3,1.76,1.06,1.06,0,0,0,.82.56.77.77,0,0,0,.77-.28A2.31,2.31,0,0,0,133.85,89.13Z" transform="translate(-2.92 -47)" fill="#fff"></path><path d="M139.78,91.69l-2-.25-.27,1.21-1.81-.22,2.15-7.23,1.92.25,2.13,7.72L140.07,93ZM139.42,90l-.63-2.77-.62,2.61Z" transform="translate(-2.92 -47)" fill="#fff"></path><path d="M142.46,85.8l1.63.21,2.11,4.36V86.28l1.62.21v7.39l-1.62-.2-2.1-4.32v4.07l-1.64-.19Z" transform="translate(-2.92 -47)" fill="#fff"></path><path d="M151.54,87l1.7.22v2.57l1.84.23V87.43l1.69.22V95l-1.69-.21v-3l-1.84-.22v3l-1.7-.2Z" transform="translate(-2.92 -47)" fill="#fff"></path><path d="M157.88,87.79l4.45.57v1.55l-2.78-.35v1.15l2.58.33v1.48l-2.58-.32v1.43l2.86.35v1.64l-4.53-.54Z" transform="translate(-2.92 -47)" fill="#fff"></path><path d="M163.32,95.73V88.49l2.73.36a3.18,3.18,0,0,1,1.16.32,1.63,1.63,0,0,1,.64.74,2.79,2.79,0,0,1,.24,1.2,2.48,2.48,0,0,1-.18,1,1.4,1.4,0,0,1-1.09.86,1.64,1.64,0,0,1,.43.32,2.5,2.5,0,0,1,.26.41,2.55,2.55,0,0,1,.22.47l.79,2.18-1.84-.22-.87-2.31a1.81,1.81,0,0,0-.3-.59.65.65,0,0,0-.4-.22L165,93v2.93Zm1.65-4.1.69.09a1.75,1.75,0,0,0,.43,0,.37.37,0,0,0,.27-.19.85.85,0,0,0,.1-.4.93.93,0,0,0-.16-.56.92.92,0,0,0-.61-.27l-.72-.09Z" transform="translate(-2.92 -47)" fill="#fff"></path><path d="M169,89.23l4.31.56v1.52L170.66,91v1.14l2.5.31v1.46l-2.5-.31V95l2.77.34v1.61L169,96.41Z" transform="translate(-2.92 -47)" fill="#fff"></path><polygon points="226.16 36.74 210.53 65.75 237.25 73.71 253.08 43.95 226.16 36.74" fill="#2196F3" opacity="0.59" style="isolation: isolate;"></polygon><polygon points="253.08 43.95 237.25 73.71 249.1 92.85 264.45 61.58 253.08 43.95" fill="#2196F3" opacity="0.43" style="isolation: isolate;"></polygon><polygon points="210.81 65.93 237.16 73.8 249.1 92.85 222.18 83.56 210.81 65.93" fill="#2196F3" opacity="0.98" style="isolation: isolate;"></polygon><polygon points="286.65 35.15 270.63 41.61 278.74 53.77 295.1 47.08 286.65 35.15" fill="#2196F3" opacity="0.59" style="isolation: isolate;"></polygon><polygon points="295.1 47.08 278.74 53.77 277.1 65.46 293.77 58 295.1 47.08" fill="#2196F3" opacity="0.43" style="isolation: isolate;"></polygon><polygon points="270.68 41.78 278.67 53.78 277.1 65.46 269.36 52.7 270.68 41.78" fill="#2196F3" opacity="0.98" style="isolation: isolate;"></polygon><polygon points="208.18 21.31 192.16 27.77 200.27 39.94 216.62 33.24 208.18 21.31" fill="#2196F3" opacity="0.59" style="isolation: isolate;"></polygon><polygon points="216.62 33.24 200.27 39.94 198.63 51.63 215.3 44.16 216.62 33.24" fill="#2196F3" opacity="0.43" style="isolation: isolate;"></polygon><polygon points="192.21 27.94 200.2 39.94 198.63 51.63 190.89 38.86 192.21 27.94" fill="#2196F3" opacity="0.98" style="isolation: isolate;"></polygon><polygon points="186.97 103.23 200.8 113.6 207 100.36 192.8 89.84 186.97 103.23" fill="#2196F3" opacity="0.59" style="isolation: isolate;"></polygon><polygon points="192.8 89.84 207 100.36 217.85 95.7 202.83 85.31 192.8 89.84" fill="#2196F3" opacity="0.43" style="isolation: isolate;"></polygon><polygon points="200.92 113.47 207.04 100.41 217.85 95.7 210.94 108.94 200.92 113.47" fill="#2196F3" opacity="0.98" style="isolation: isolate;"></polygon></svg>