<svg id="Layer_1" data-name="Layer 1" xmlns="http://www.w3.org/2000/svg" xmlns:xlink="http://www.w3.org/1999/xlink" viewBox="0 0 284.28 232.11" width="406" height="306" class="illustration"><defs><linearGradient id="linear-gradient" x1="9.56" y1="235.66" x2="432.75" y2="-71.8" gradientUnits="userSpaceOnUse"><stop offset="0.01"></stop><stop offset="0.13" stop-opacity="0.69"></stop><stop offset="0.25" stop-opacity="0.32"></stop><stop offset="1" stop-opacity="0"></stop></linearGradient><linearGradient id="linear-gradient-2" x1="75.6" y1="181.45" x2="287.62" y2="34.48" gradientUnits="userSpaceOnUse"><stop offset="0.01"></stop><stop offset="0.13" stop-opacity="0.69"></stop><stop offset="1" stop-opacity="0"></stop></linearGradient><linearGradient id="linear-gradient-3" x1="133.88" y1="175.5" x2="265.28" y2="346.31" xlink:href="#linear-gradient"></linearGradient><linearGradient id="linear-gradient-4" x1="105.57" y1="143.68" x2="236.76" y2="227.46" xlink:href="#linear-gradient"></linearGradient><linearGradient id="linear-gradient-5" x1="204.36" y1="120.25" x2="178.35" y2="84.78" xlink:href="#linear-gradient"></linearGradient><linearGradient id="linear-gradient-6" x1="176.58" y1="95.02" x2="212.19" y2="116" xlink:href="#linear-gradient"></linearGradient></defs><title>10</title><path d="M188.69,27.64c-8.88-4.21-18.85-5.61-28.68-6-22.88-.83-48,5-61.74,23.32C93.52,51.33,90.47,58.74,87,65.86a179.06,179.06,0,0,1-28.57,41.92c-7.62,8.34-16,16-22.85,25C19.79,153.72,14,182.41,22.5,207.21s31.91,44.38,58.06,46.32c15.69,1.16,31.13-3.62,46.7-5.82,34.53-4.89,69.42,2.89,104.21,5.33,12.95.91,26.55,1,38.15-4.89,20.66-10.4,28.6-36.1,29.1-59.23,1.21-55-28-102.65-72.39-132.82C213.35,47.29,203,34.44,188.69,27.64Z" transform="translate(-18.58 -21.6)" fill="#2196F3" opacity="0.18" style="isolation: isolate;"></path><path d="M221.16,215.4l-17.29.95-76.45,4.21L81.27,223.1a10.69,10.69,0,0,1-11.14-9L49.24,78.4A10.68,10.68,0,0,1,59.61,66.1l6-.1L85.54,195.12a10.69,10.69,0,0,0,11.14,9l46.15-2.54,76.45-4.21,10.61-.58,1.16,5.84A10.68,10.68,0,0,1,221.16,215.4Z" transform="translate(-18.58 -21.6)" fill="#fff"></path><path d="M229.89,196.83l-10.61.58-76.45,4.21-46.15,2.54a10.69,10.69,0,0,1-11.14-9L65.66,66l129-2.17a10.68,10.68,0,0,1,10.65,8.6Z" transform="translate(-18.58 -21.6)" fill="#fff"></path><path d="M221.16,215.4l-17.29.95-76.45,4.21L81.27,223.1a10.69,10.69,0,0,1-11.14-9L49.24,78.4A10.68,10.68,0,0,1,59.61,66.1l6-.1L85.54,195.12a10.69,10.69,0,0,0,11.14,9l46.15-2.54,76.45-4.21,10.61-.58,1.16,5.84A10.68,10.68,0,0,1,221.16,215.4Z" transform="translate(-18.58 -21.6)" fill="url(#linear-gradient)"></path><path d="M229.89,196.83l-10.61.58-76.45,4.21-46.15,2.54a10.69,10.69,0,0,1-11.14-9L65.66,66l129-2.17a10.68,10.68,0,0,1,10.65,8.6Z" transform="translate(-18.58 -21.6)" fill="url(#linear-gradient-2)"></path><path d="M203.87,216.35l-76.45,4.21a53.76,53.76,0,0,1,6.2-12.81c2.36-3.68,5-7.19,7.71-10.62,1.8-2.26,2.61-1.47,5.32-.86q3.49.78,7,1.34a113.3,113.3,0,0,0,28.38.88,18.44,18.44,0,0,1,4.92-.07,12.52,12.52,0,0,1,3.55,1.3A26.45,26.45,0,0,1,203.87,216.35Z" transform="translate(-18.58 -21.6)" fill="#2196F3"></path><path d="M203.87,216.35l-76.45,4.21a53.76,53.76,0,0,1,6.2-12.81c2.36-3.68,5-7.19,7.71-10.62,1.8-2.26,2.61-1.47,5.32-.86q3.49.78,7,1.34a113.3,113.3,0,0,0,28.38.88,18.44,18.44,0,0,1,4.92-.07,12.52,12.52,0,0,1,3.55,1.3A26.45,26.45,0,0,1,203.87,216.35Z" transform="translate(-18.58 -21.6)" fill="url(#linear-gradient-3)"></path><path d="M179.85,115.07A12.7,12.7,0,0,1,171.9,114c-7.34-3.68-9.57-13.44-16.3-18.14-4-2.8-59.06-38.43-92.51,72.52" transform="translate(-18.58 -21.6)" fill="none" stroke="#fff" stroke-miterlimit="10"></path><path d="M179.74,117.07a3.05,3.05,0,0,1-2,1.3,27.36,27.36,0,0,1-7.3,1.06c-8.23.07-16-3.55-23.33-7.28s-14.82-7.73-23-8.52c-8.82-.87-17.73,2.16-25,7.17C96.8,112.32,59.93,142.38,59.5,145" transform="translate(-18.58 -21.6)" fill="none" stroke="#fff" stroke-miterlimit="10"></path><path d="M181.85,118.19a13.89,13.89,0,0,1-8.09,4.91,32.63,32.63,0,0,1-9.62.44c-7-.49-13.92-1.67-20.92-1.62s-14.23,1.43-19.88,5.56-8.59,58.31-58.81,50.2" transform="translate(-18.58 -21.6)" fill="none" stroke="#fff" stroke-miterlimit="10"></path><path d="M258,89.21a8.49,8.49,0,0,0-2,1.13,5.6,5.6,0,0,0-1.4,1.43,9.46,9.46,0,0,0-1,3.76c-.19,1.3-2.06,3.63-2.8,4.7-1.29,1.84-1.33,14.68-3.07,24.08h0a.06.06,0,0,0,0,.05c-.15.83-.31,1.62-.49,2.38-.39,1.64-.17,3.39-1.18,4.74a14.6,14.6,0,0,1-3.79,3.29,80.86,80.86,0,0,1-18.49,9.27,20.09,20.09,0,0,1-4.61,1.15c-.35,0-.69.05-1,.05l1-.15,1.54-.22a16,16,0,0,1-1.54-.92,5.34,5.34,0,0,1-2.35-2.73,7.09,7.09,0,0,1-.22-2.3c0-2.57.17-5.36,1.85-7.29A10.85,10.85,0,0,1,221,129.7a69.09,69.09,0,0,1,9.62-5.09,10.57,10.57,0,0,0,3-1.61,9.23,9.23,0,0,0,2.21-3.78l3.24-8.27a46,46,0,0,0,3-9.28c-1.15-1.77-3-3.18-3.56-5.2-.4-1.39-.21-2.93-.86-4.23a11.43,11.43,0,0,1-1.06-1.94c-.19-.72.22-1.68,1-1.66a1.46,1.46,0,0,1,.83.37,6.26,6.26,0,0,1,1.86,2.46c.06.15.15.33.32.34a.46.46,0,0,0,.28-.15,6,6,0,0,0,1.27-2.36c1.28-3.67,2.31-7.43,3.83-11a4.54,4.54,0,0,1,2.29-2.76.86.86,0,0,1,.63,0c.44.2.41.82.29,1.28-.4,1.41-1.08,2.72-1.57,4.09a6.94,6.94,0,0,0-.38,4.28,2.51,2.51,0,0,0,1.5-.84,15,15,0,0,1,3.62-2.51,7.13,7.13,0,0,1,4.3-.63c.37.07.8.23.87.6s-.52.84-1,1a14.05,14.05,0,0,0-3.25,1.06,3.83,3.83,0,0,0-2.05,2.61,14.42,14.42,0,0,1,3.53-1.93,6,6,0,0,1,1.86-.44,2.7,2.7,0,0,1,1.78.55c.12.11.24.27.18.41a.53.53,0,0,1-.19.17,22.89,22.89,0,0,1-2.75,1.28,4.84,4.84,0,0,0-1.36.69,1.37,1.37,0,0,0-.52,1.36,11.19,11.19,0,0,1,3.56-1,1.81,1.81,0,0,1,1.43.44.83.83,0,0,1,.17.32C259,88.77,258.42,89,258,89.21Z" transform="translate(-18.58 -21.6)" fill="#fbc6d7"></path><path d="M247.71,124.37c-.15.83-.31,1.62-.49,2.38-.39,1.64-.17,3.39-1.18,4.74a14.6,14.6,0,0,1-3.79,3.29,80.86,80.86,0,0,1-18.49,9.27,20.09,20.09,0,0,1-4.61,1.15v-7.47l4.78-9.5s1,10.84,1.86,11.23,19.47-9.52,19.73-9.65A57.81,57.81,0,0,0,247.71,124.37Z" transform="translate(-18.58 -21.6)" fill="#e5a8be"></path><path d="M223.93,128.23c-.59,4.55-1,8.77-1.61,13.33a4.93,4.93,0,0,1-3.71,5l-7.73,3.38a5.66,5.66,0,0,0-1.83,1.1,5.93,5.93,0,0,0-1.16,2.21c-4.51,12.11-14.51,21.95-17.15,34.6-.58,2.81-.78,5.68-1.24,8.52a5.46,5.46,0,0,1-1.26,3.14,2.92,2.92,0,0,1-.63.48,7.51,7.51,0,0,1-2.34.78c-7.17,1.56-14.43,3.13-21.77,2.94s-14.88-2.35-20.25-7.36a1.33,1.33,0,0,1-.46-.67,1.42,1.42,0,0,1,.21-.89,95.9,95.9,0,0,0,8.6-26.42,2,2,0,0,0-.09-1.34,1.3,1.3,0,0,0-.18-.23,2.68,2.68,0,0,0-.61-.43c-1.3-.75-1.18-2.3-2.29-3.31a33.29,33.29,0,0,1-4.26-4.69,2.37,2.37,0,0,1-.63-1.53,2.46,2.46,0,0,1,.71-1.32,98.79,98.79,0,0,0,11.43-16.93c1.3-2.45,2.6-5.07,4.9-6.63a15,15,0,0,1,6.75-2,122.13,122.13,0,0,1,23.57-.52,57.85,57.85,0,0,0,6.71.31c2.85-.11,5.65-.72,8.48-1.1A106.24,106.24,0,0,1,223.93,128.23Z" transform="translate(-18.58 -21.6)" fill="#fff"></path><path d="M187.61,200a7.51,7.51,0,0,1-2.34.78c-7.17,1.56-14.43,3.13-21.77,2.94s-14.88-2.35-20.25-7.36a1.33,1.33,0,0,1-.46-.67,1.42,1.42,0,0,1,.21-.89,95.9,95.9,0,0,0,8.6-26.42,2,2,0,0,0-.09-1.34,1.3,1.3,0,0,0-.18-.23c5.46-4.4,13.34-9.06,16.22-12.59-1,5.24-2.48,10.43-3.73,15.62-.36,1.48-.71,3.09-.1,4.49.7,1.58,2.4,2.4,3.77,3.45,4.08,3.13,5.53,8.66,9.2,12.26C178,191.31,182.89,195.54,187.61,200Z" transform="translate(-18.58 -21.6)" fill="url(#linear-gradient-4)"></path><path d="M208.29,122.64a5.17,5.17,0,0,1-2.4,1.58c-.29.11-.6.21-.9.31a6.78,6.78,0,0,0-3.18,1.79,9.27,9.27,0,0,0-2,4.85c-.18,1.84.16,3.81-.69,5.45a3.45,3.45,0,0,1-.76,1h0l-.06.05a3.53,3.53,0,0,1-1.4.65,9.29,9.29,0,0,1-6.28-.63,15.78,15.78,0,0,1-5.08-3.88,9.65,9.65,0,0,1-2.6-4.61,22.92,22.92,0,0,0,2.29-10.44c-.16-2.54-1.39-4.87-2-7.35a15.42,15.42,0,0,1,8.68-17.27,9,9,0,0,1,5.19-.73,10.21,10.21,0,0,1,5.51,3.86,25.29,25.29,0,0,1,4.76,9.8,55.51,55.51,0,0,1,1.39,7.49l.27,2.21C209.3,118.76,209.5,121,208.29,122.64Z" transform="translate(-18.58 -21.6)" fill="#fbc6d7"></path><path d="M186,107.48a12.82,12.82,0,0,0,1.81,4.48,1.6,1.6,0,0,1-1.64-.26,11.26,11.26,0,0,1-1.24-1.25,1.08,1.08,0,0,0-1.08-.41c-.42.17-.5.72-.46,1.17a18,18,0,0,0,1.23,4.14,5.66,5.66,0,0,1,.12,4.22c-1.62.07-2.83-1.43-3.75-2.77L178.32,113a8,8,0,0,1-1.52-3.14c-.25-1.59.47-3.15,1-4.67.82-2.3,1.27-4.75,2.4-6.92a16.26,16.26,0,0,1,6.06-6.15,48.69,48.69,0,0,1,7.92-3.68,3.09,3.09,0,0,1,3.87.47l3,2.28c1.46,1.11,3,2.37,3.42,4.16.22,1-.1,2.21-1.06,2.46a3.12,3.12,0,0,1-2-.54,8.12,8.12,0,0,0-9.67,2.26c-1.15,1.49-1.82,2.9-3.57,3.74A3.7,3.7,0,0,0,186,107.48Z" transform="translate(-18.58 -21.6)" fill="#fc682d"></path><path d="M205.89,124.22c-1.48.56-3.14.93-4.08,2.1a9.27,9.27,0,0,0-2,4.85c-.18,1.84.16,3.81-.69,5.45a3.45,3.45,0,0,1-.76,1h0a3.22,3.22,0,0,1-3.68-3.35c.16-1.23,1-2.24,1.58-3.36a7.21,7.21,0,0,0,.48-5.28c-.37-1.26-2.51-3-1.86-4.16C194.55,122.05,200.56,125.25,205.89,124.22Z" transform="translate(-18.58 -21.6)" fill="#e5a8be"></path><path d="M143.6,157c-.76.25-1,.79-1.77,1.74a52.73,52.73,0,0,0-8.34,16.29,2.67,2.67,0,0,0,0,2.16,2.91,2.91,0,0,0,1.58,1c6.1,2.24,10.76,7.15,16.21,10.68a53.81,53.81,0,0,0,11.59,5.45c4.42,1.55,9,2.77,13.33,4.5,1.62.64,3,1.29,4.67,1.8a8.49,8.49,0,0,1,4.75,3,25.65,25.65,0,0,0,1.59,2.49,7.7,7.7,0,0,0,2.74,1.71,66.23,66.23,0,0,1,10.82,5.66,11.66,11.66,0,0,0,2.16,1.25c.5-.56,0-1.42-.42-2l-3.5-4.53c1.79-.19,3.51.69,5,1.61a12.1,12.1,0,0,0,4.92,2.13c.17-1.51-1.5-2.32-2.42-3.17l-3.81-3.55a1.36,1.36,0,0,1-.45-.62,22.59,22.59,0,0,1,8,1.33,3.34,3.34,0,0,0,2.26.3.53.53,0,0,0,.27-.19c.12-.2,0-.44-.15-.62a5.41,5.41,0,0,0-2.27-1.42,54,54,0,0,0-6.9-2.25,14.84,14.84,0,0,1,4-.75c1.14-.06,2.57.42,3.66.11a1.09,1.09,0,0,0,.85-1.17,49.62,49.62,0,0,0-13.29-2.31l2.53-3a2.06,2.06,0,0,0,.53-.88c.17-.85-.81-1.57-1.67-1.49a4.3,4.3,0,0,0-2.23,1.24c-1.59,1.36-3.39,2.74-5.47,2.78-1.83,0-3.49-1-5-1.94l-6.64-4.17c-3.39-2.14-6.79-4.27-10-6.62-5.13-3.71-10-8-15.85-10.37a53,53,0,0,0,3.43-8.2,2.71,2.71,0,0,0,.18-1.4,2.64,2.64,0,0,0-1.22-1.46,31.92,31.92,0,0,0-8.12-4.29,12.78,12.78,0,0,0-4.59-1A3.85,3.85,0,0,0,143.6,157Z" transform="translate(-18.58 -21.6)" fill="#fbc6d7"></path><path d="M205.25,106.14l1.67.58a1.18,1.18,0,0,1,.72.5,1.13,1.13,0,0,1-.11.87,7.48,7.48,0,0,1-1.78,2.39.85.85,0,0,1-.37.23c-.36.1-.69-.22-.92-.51a21.36,21.36,0,0,1-1.43-1.86c-.42-.64-1.14-1.81-.58-2.57S204.55,105.89,205.25,106.14Z" transform="translate(-18.58 -21.6)" fill="#fbc6d7"></path><path d="M208.29,122.64a5.17,5.17,0,0,1-2.4,1.58c-.29.11-.6.21-.9.31a1.28,1.28,0,0,1-.44-.18c.25-.28.49-.57.75-.85a10.45,10.45,0,0,0,1.27-1.7c1-1.86.8-4.13,1.08-6.24a11.56,11.56,0,0,0,.15-1.43,6.37,6.37,0,0,0-.19-1.37,5.21,5.21,0,0,0-1-2.16c-.44-.51-1.52-.69-1.16-1.41a6.47,6.47,0,0,1,1.89-2.14,55.51,55.51,0,0,1,1.39,7.49l.27,2.21C209.3,118.76,209.5,121,208.29,122.64Z" transform="translate(-18.58 -21.6)" fill="#e5a8be"></path><path d="M203,98.06a31.9,31.9,0,0,0-3.6,1.92c-3.83,2.16-8.07,3.53-11.84,5.79a4.91,4.91,0,0,0-1.34,1,11.18,11.18,0,0,0-1.11,2.34c-.75,1.49-2.22,2.47-3.46,3.6s-2.34,2.74-2,4.37a5.34,5.34,0,0,0,.7,1.56c.57,1,1.16,2,1.77,2.92a3.36,3.36,0,0,0,1.61,1.57c1.1.36,2.2-.45,3.16-1.11a14.82,14.82,0,0,1,4.29-2,22.77,22.77,0,0,0,3.14-1c1.73-.8,6.55-8.32,9.29-10.21,1.66-1.14,6.59,0,7.12-.73.69-1,3.48-6.06,2.84-7.08-.8-1.28-5.28-2.24-6.5-3.17S204.14,97.58,203,98.06Z" transform="translate(-18.58 -21.6)" fill="#2196F3"></path><path d="M203,99.42a12,12,0,0,0-3.26.49,38.73,38.73,0,0,0-4.61,2.18c-1.63.73-3.27,1.43-4.87,2.21-.92.46-1.84.94-2.72,1.47a4.91,4.91,0,0,0-1.34,1,11.18,11.18,0,0,0-1.11,2.34c-.75,1.49-2.22,2.47-3.46,3.6s-2.34,2.74-2,4.37a5.34,5.34,0,0,0,.7,1.56c.57,1,1.16,2,1.77,2.92a3.36,3.36,0,0,0,1.61,1.57c1.1.36,2.2-.45,3.16-1.11a14.82,14.82,0,0,1,4.29-2c1.32-.39,2.68-.54,3.74-1.49a27,27,0,0,0,2.76-3.19c1.57-2,3.3-3.83,5-5.68a4.37,4.37,0,0,1,.91-.81,2.8,2.8,0,0,1,.76-.3c1.76-.46,3.63.15,5.43-.09a1.87,1.87,0,0,0,.93-.34,1.55,1.55,0,0,0,.37-.51c.44-.9,2.73-5.61,2.47-6.57s-3,1.81-3.51.94a2.94,2.94,0,0,0-.47-.68,2.1,2.1,0,0,0-.52-.36A12,12,0,0,0,203,99.42Z" transform="translate(-18.58 -21.6)" fill="url(#linear-gradient-5)"></path><path d="M194.63,102.56a8,8,0,0,0-3.27,3.13,6.85,6.85,0,0,0-.22,4.11,8.34,8.34,0,0,0,1.3,3.4A4,4,0,0,0,195.5,115a4.7,4.7,0,0,0,3.42-1.75c.89-1,1.54-2.14,2.39-3.16A11,11,0,0,1,207,106.5c1.58-.4,3.31-.46,4.65-1.38a4.87,4.87,0,0,0,1.51-5.78,6,6,0,0,0-3.41-3.15c-1.77-.69-3,.06-4.6.79A81.6,81.6,0,0,0,194.63,102.56Z" transform="translate(-18.58 -21.6)" fill="#2196F3"></path><path d="M205.89,89.61s-27.1,4.71-32.83,22.53c0,0-1.5,6.14,6.57,5l.63-1.34s-5,.53-5-1.49,2.21-14.64,30.67-22.25Z" transform="translate(-18.58 -21.6)" fill="#2196F3"></path><path d="M205.89,89.61s-27.1,4.71-32.83,22.53c0,0-1.5,6.14,6.57,5l.63-1.34s-5,.53-5-1.49,2.21-14.64,30.67-22.25Z" transform="translate(-18.58 -21.6)" fill="url(#linear-gradient-6)"></path><polygon points="213.34 22.31 202.56 60.69 250.4 54.9 260.91 18.2 213.34 22.31" fill="#2196F3" opacity="0.47"></polygon><polygon points="225.93 89.52 202.56 60.69 250.4 54.9 272.35 88.81 225.93 89.52" fill="#2196F3" opacity="0.2"></polygon><polygon points="284.28 47.2 260.91 18.37 250.4 54.9 272.35 88.81 284.28 47.2" fill="#2196F3" opacity="0.84"></polygon><polygon points="245.75 119.95 240.52 138.57 263.74 135.76 268.84 117.95 245.75 119.95" fill="#2196F3" opacity="0.47"></polygon><polygon points="251.86 152.56 240.52 138.57 263.74 135.76 274.39 152.22 251.86 152.56" fill="#2196F3" opacity="0.2"></polygon><polygon points="280.18 132.02 268.84 118.03 263.74 135.76 274.39 152.22 280.18 132.02" fill="#2196F3" opacity="0.84"></polygon></svg>