<svg id="Layer_2" data-name="Layer 2" xmlns="http://www.w3.org/2000/svg" xmlns:xlink="http://www.w3.org/1999/xlink" viewBox="0 0 400 300" width="406" height="306" class="illustration"><defs><linearGradient id="linear-gradient" x1="46.63" y1="200.12" x2="79.24" y2="176.03" gradientUnits="userSpaceOnUse"><stop offset="0.01" stop-color="#2e3192" stop-opacity="0"></stop><stop offset="1" stop-color="#666"></stop></linearGradient><linearGradient id="linear-gradient-2" x1="196.24" y1="207.55" x2="227.73" y2="163.09" xlink:href="#linear-gradient"></linearGradient><linearGradient id="linear-gradient-3" x1="292.83" y1="225.15" x2="325.44" y2="201.06" xlink:href="#linear-gradient"></linearGradient><linearGradient id="linear-gradient-4" x1="122.21" y1="256.36" x2="188.09" y2="201.2" xlink:href="#linear-gradient"></linearGradient></defs><title>PP</title><path d="M194.73,292,29,194c-5.28-3-9.8-7.83-4.66-11L190.67,87.1c2.5-1.55,6.29-2.56,8.82-1.09l174,101c5.28,3.06,6.22,11.63.94,14.69L216.58,291.81A22,22,0,0,1,194.73,292Z" fill="#a6bfdb"></path><path d="M70.56,179.5,35.3,196.62a108,108,0,0,0,16.37,9l35.92-23.95" opacity="0.48" fill="url(#linear-gradient)"></path><path d="M230.76,177.8c-9.26-5.86-18.51-11.78-27.13-18.53l-48.28,27.66,50,39c5.74-3.63,35.76-18.67,53.08-27.88v-2C249.21,190,240.11,183.71,230.76,177.8Z" opacity="0.48" fill="url(#linear-gradient-2)"></path><path d="M213.6,94.56a2.68,2.68,0,0,0-1.37-1.83,1.41,1.41,0,0,0-1.88.49,1.56,1.56,0,0,0-.14,1v0A3,3,0,0,0,211,97,1.39,1.39,0,0,0,213,97,2.81,2.81,0,0,0,213.6,94.56Z" fill="#5a2500"></path><path d="M256.5,49.58,204.15,18.66a6.36,6.36,0,0,0-5-.34h0l-.08,0a6.59,6.59,0,0,0-1.11.49L193,21l2.65,1.17h0l1.63,134a13.49,13.49,0,0,0,6.7,11.66l48.81,28.44-.76,4.58,6.62-3.5h0a4.06,4.06,0,0,0,2.11-3.58V57.05A8.67,8.67,0,0,0,256.5,49.58Z" fill="#2196F3"></path><path d="M256.5,49.58,204.15,18.66a6.36,6.36,0,0,0-5-.34h0l-.08,0a6.59,6.59,0,0,0-1.11.49L193,21l2.65,1.17h0l1.63,134a13.49,13.49,0,0,0,6.7,11.66l48.81,28.44-.76,4.58,6.62-3.5h0a4.06,4.06,0,0,0,2.11-3.58V57.05A8.67,8.67,0,0,0,256.5,49.58Z" fill="#3f3d56" opacity="0.33"></path><path d="M248.26,200.63l-50.61-29.49a13.49,13.49,0,0,1-6.7-11.66V24.25a3.58,3.58,0,0,1,5.41-3.09l53.8,31.78a8.67,8.67,0,0,1,4.26,7.47V197.09A4.1,4.1,0,0,1,248.26,200.63Z" fill="#f4f4f4"></path><polygon points="251.21 68.67 193.55 35.6 193.55 153.91 251.21 187.24 251.21 68.67" fill="#054f70"></polygon><ellipse cx="217.01" cy="175.49" rx="2.66" ry="3.59" transform="translate(-34.82 55.19) rotate(-13.43)" fill="#bababc"></ellipse><path d="M214.86,41.29h0a1.29,1.29,0,0,0,.65,1.12l11.14,6.4a1.29,1.29,0,0,0,1.93-1.12v-.27a1.29,1.29,0,0,0-.67-1.13l-11.14-6.13A1.29,1.29,0,0,0,214.86,41.29Z" fill="#ccc"></path><ellipse cx="209.74" cy="37.89" rx="1.26" ry="1.72" transform="matrix(0.94, -0.35, 0.35, 0.94, -0.11, 75.14)" fill="#ccc"></ellipse><path d="M360.75,223.57l-1-.5c-.57-.29-1.08.58-.5.86l1,.5C360.82,224.72,361.33,223.86,360.75,223.57Z" fill="#fa4e76"></path><path d="M395,179.44a18.84,18.84,0,0,0-5.41.89.51.51,0,0,0-.35.62,6.75,6.75,0,0,0,3.5,4.18c.57.28,1.08-.58.5-.86a5.74,5.74,0,0,1-2.85-3.12,17.85,17.85,0,0,1,4.61-.7A.5.5,0,0,0,395,179.44Z" fill="#f2f2f2"></path><path d="M200,58v-.24c0-2.63,3.28-4.27,5.9-2.95l36.9,20.55a12,12,0,0,1,1.77,1.05h0c2.6,2.16-.17,7.44-5.12,5.13L202,61A3.36,3.36,0,0,1,200,58Z" fill="#031e28"></path><path d="M238.62,117.11c1.83,14.58-4.9,27.28-15,28.37s-19.81-9.84-21.64-24.41,4.9-27.28,15-28.37S236.79,102.54,238.62,117.11Z" fill="#79c83b"></path><polygon points="207.58 120.71 210.55 116.03 215.88 124.16 227.74 105.85 232.43 109.69 216.35 134.09 207.58 120.71" fill="#fff"></polygon><path d="M316.76,204.53,281.5,221.65a108,108,0,0,0,16.37,9l35.92-23.95" opacity="0.48" fill="url(#linear-gradient-3)"></path><path d="M313.4,171.94a.94.94,0,0,1-.21-.31c-1.51-.76-3-1.48-4.59-2.15-.48-.36-1-.69-1.46-1a.84.84,0,0,1-.66.27,39.7,39.7,0,0,1-6.73-.76,2.72,2.72,0,0,0-.23.6,17.48,17.48,0,0,1,3.93,8.18c.43.49.89,1,1.39,1.54,2.23.88,5.26.69,7.8,1a4.31,4.31,0,0,0,.28-.8l.11,0a19.9,19.9,0,0,1,2.49,1.11,10,10,0,0,1,4.6,1.9,3.14,3.14,0,0,0,1-.62C318.51,178,316.23,174.73,313.4,171.94Z" fill="#1b896c"></path><path d="M326.31,174.36l6.26-4.93s8.45-2.68,8.33-11.75-2.83-11.5-2.83-11.5S327.54,162,326.31,174.36Z" fill="#1b896c"></path><path d="M313.09,191.58l3.2,14.93a3.36,3.36,0,0,0,1.8,2.31c1.86.91,5.7,1.86,13,.54a3.38,3.38,0,0,0,2.7-2.6l3.28-15.18" fill="#2196F3"></path><ellipse cx="325.08" cy="191.58" rx="11.99" ry="4.91" fill="#56403d"></ellipse><path d="M341.57,154.62c-.28-3.61-2.66-6.84-2.3-10.48.07-.68-.86-.79-1.18-.32a72,72,0,0,0-11.78,30.54.64.64,0,0,0-.07.44,71.94,71.94,0,0,0-.45,14.74,9.16,9.16,0,0,0,1.25-.2,71.11,71.11,0,0,1,.47-14.46c2.13-2.53,5.15-3.73,7.72-5.74a16.43,16.43,0,0,0,5-6.46A17.09,17.09,0,0,0,341.57,154.62ZM339,162.17a16,16,0,0,1-6.45,7.25c-1.19.75-2.37,1.46-3.47,2.27A109.21,109.21,0,0,0,335,157.83c.27-.77-1-1.1-1.22-.34a107,107,0,0,1-5.53,13.11,70.93,70.93,0,0,1,9.83-24.43c.31,2.05,1.28,3.9,1.82,6A15.55,15.55,0,0,1,339,162.17Z" fill="#37b596"></path><path d="M325.18,189.57c-1-2.58-2-5.19-3.16-7.68a.65.65,0,0,0-.26-.61l0,0a29.37,29.37,0,0,0-5.9-8.26c-4.78-4.53-11-5.63-17.34-6.36-.64-.07-.76.7-.39,1.07a.59.59,0,0,0,.27.37c3.76,2.33,2.66,8.26,6.64,10.45,1.87,1,4.14.72,6.18.8a19.06,19.06,0,0,1,7.83,1.79,18.32,18.32,0,0,1,4.32,8.35A10.64,10.64,0,0,0,325.18,189.57Zm-17.34-17.23c-.77-.28-1.1.94-.34,1.22a29.72,29.72,0,0,1,9.19,5.28,18.36,18.36,0,0,0-2-.45c-2.65-.43-6.72.4-9.06-1-3.27-1.9-3-6.54-5.33-9.31,5.69.76,11.1,2.12,15.29,6.43a26.77,26.77,0,0,1,3.9,5.24A29.88,29.88,0,0,0,307.84,172.34Z" fill="#37b596"></path><path d="M53.56,142.23v49.16a4.19,4.19,0,0,0,6.33,3.6l72.95-43.43a4.19,4.19,0,0,0,2-3.6V97.89a4.19,4.19,0,0,0-6.3-3.61L57.09,136.07A7.13,7.13,0,0,0,53.56,142.23Z" fill="#054f70"></path><path d="M56.69,143.45v49.16A4.19,4.19,0,0,0,63,196.2L136,152.77a4.19,4.19,0,0,0,2-3.6V99.11a4.19,4.19,0,0,0-6.3-3.61L60.23,137.29A7.13,7.13,0,0,0,56.69,143.45Z" fill="#2196F3"></path><ellipse cx="127.45" cy="144.64" rx="7.65" ry="5.19" transform="translate(-53.85 210.18) rotate(-68.49)" fill="#fbf472"></ellipse><ellipse cx="120.04" cy="148.77" rx="7.65" ry="5.19" transform="translate(-62.38 205.91) rotate(-68.49)" fill="#e2347c"></ellipse><path d="M65.79,140.4c.92-.52,1.54-.25,1.74.74l-.7.65c-.18-.56-.53-.69-1-.4a2.24,2.24,0,0,0-.86,1,3.84,3.84,0,0,0-.35,1.64,1.77,1.77,0,0,0,.33,1.27.69.69,0,0,0,.86,0,2.36,2.36,0,0,0,1-1.59l.7-.16a3.79,3.79,0,0,1-1.75,2.74,1.19,1.19,0,0,1-1.41,0,2.25,2.25,0,0,1-.57-1.84,5.33,5.33,0,0,1,.59-2.49A3.78,3.78,0,0,1,65.79,140.4Z" fill="#fff"></path><path d="M70.24,141.1,71.39,143l-.87.5-1.12-1.84-.41.23v2.48l-.78.45,0-5.75,1.53-.87c.82-.47,1.28-.08,1.27.91A2.81,2.81,0,0,1,70.24,141.1Zm-.49-.62a1,1,0,0,0,.5-.93q0-.65-.49-.37l-.76.43v1.3l.76-.43" fill="#fff"></path><polygon points="74.57 135.45 74.57 136.44 72.75 137.48 72.74 138.68 74.2 137.85 74.2 138.84 72.74 139.67 72.73 141.25 74.61 140.18 74.61 141.17 71.94 142.69 71.97 136.94 74.57 135.45" fill="#fff"></polygon><path d="M76.67,134.26c1-.56,2-.25,1.94,1.76a4.58,4.58,0,0,1-2,4l-1.31.75,0-5.75Zm.68,4a3.27,3.27,0,0,0,.47-1.79c0-.72-.17-1.15-.46-1.25a1.11,1.11,0,0,0-.95.17l-.29.17,0,3.78.29-.17a2.78,2.78,0,0,0,1-.91" fill="#fff"></path><polygon points="80.11 132.29 80.08 138.04 79.31 138.49 79.34 132.73 80.11 132.29" fill="#fff"></polygon><polygon points="83.91 130.12 83.9 131.11 82.73 131.78 82.71 136.54 81.93 136.99 81.95 132.22 80.78 132.89 80.79 131.9 83.91 130.12" fill="#fff"></polygon><path d="M87.72,127.88c.92-.52,1.54-.25,1.74.74l-.7.65c-.18-.56-.53-.69-1-.4a2.22,2.22,0,0,0-.86,1,3.76,3.76,0,0,0-.35,1.64,1.73,1.73,0,0,0,.33,1.27.68.68,0,0,0,.85,0,2.36,2.36,0,0,0,1-1.59l.7-.16a3.79,3.79,0,0,1-1.75,2.74,1.19,1.19,0,0,1-1.41,0,2.25,2.25,0,0,1-.57-1.84,5.33,5.33,0,0,1,.59-2.49A3.78,3.78,0,0,1,87.72,127.88Z" fill="#fff"></path><path d="M91.88,125.57l1.39,4.94-.84.48-.31-1.18-1.33.76-.31,1.53-.84.48L91.1,126ZM91,129.46l.89-.51-.44-1.74L91,129.46" fill="#fff"></path><path d="M95.84,126.48,97,128.39l-.88.5L95,127.05l-.41.23v2.48l-.78.44,0-5.75,1.53-.87c.82-.47,1.28-.08,1.27.91A2.82,2.82,0,0,1,95.84,126.48Zm-.49-.62a1,1,0,0,0,.5-.93q0-.65-.49-.37l-.76.43v1.3l.76-.43" fill="#fff"></path><path d="M98.9,121.57c1-.56,2-.25,1.94,1.76a4.58,4.58,0,0,1-2,4l-1.32.75,0-5.75Zm.68,4a3.27,3.27,0,0,0,.47-1.79c0-.72-.17-1.15-.46-1.25a1.11,1.11,0,0,0-.95.17l-.29.17,0,3.78.29-.17a2.78,2.78,0,0,0,1-.91" fill="#fff"></path><path d="M65.38,155.59v9.19a2.21,2.21,0,0,0,3.3,1.92l12.82-7.33a2.21,2.21,0,0,0,1.11-1.92v-9.38a2.21,2.21,0,0,0-3.32-1.9l-12.82,7.52A2.21,2.21,0,0,0,65.38,155.59Z" fill="#d1d1f5"></path><polygon points="87.68 147.84 87.98 147.67 87.6 153.41 86.92 153.82 87.2 149.51 86.44 150.6 86.51 149.48 87.68 147.84" fill="#fff"></polygon><path d="M89.81,146.51l.09-.06c.7-.42,1.07,0,1,1A4.7,4.7,0,0,1,90.5,149l-1,2.38,1.32-.8-.06,1L88.34,153l0-.41,1.51-3.45a3.62,3.62,0,0,0,.35-1.21c0-.47-.11-.66-.41-.48l0,0a1.45,1.45,0,0,0-.5,1l-.61.2a3.39,3.39,0,0,1,.42-1.3A2.45,2.45,0,0,1,89.81,146.51Z" fill="#fff"></path><path d="M91.9,145.32,94,144l0,.36-1,2.37.15-.11c.58-.35.89.13.82,1.15a4,4,0,0,1-.45,1.63,2.72,2.72,0,0,1-.83,1l-.11.07c-.34.21-.62.23-.83.06a1.22,1.22,0,0,1-.31-1l.66-.52c.05.51.23.66.55.47l0,0a1.72,1.72,0,0,0,.61-1.28c0-.65-.17-.87-.53-.65l0,0a1.27,1.27,0,0,0-.29.29l-.23-.42.81-1.91-1.2.71Z" fill="#fff"></path><path d="M96.84,145.94l.42-.25-.06,1-.42.25L96.71,148l-.67.39.07-1.06-1.61,1,0-.52,1.86-5.1.71-.43Zm-.67.4.14-2.19-.94,2.67.8-.48" fill="#fff"></path><path d="M101.48,143.16l.42-.25-.06,1-.42.25-.07,1.07-.68.4.07-1.07-1.62,1,0-.52,1.86-5.1.71-.43Zm-.68.41.14-2.19L100,144l.79-.48" fill="#fff"></path><path d="M103.09,138.63l1.93-1.16-.06,1-1.38.82-.17,1.25a2.06,2.06,0,0,1,.48-.49l.07,0c.76-.45,1.1,0,1,1.22a4.19,4.19,0,0,1-.44,1.63,2.63,2.63,0,0,1-.83,1l-.1.07a.71.71,0,0,1-.79.07,1.15,1.15,0,0,1-.3-.92l.65-.56c0,.49.21.64.51.46l.05,0a1.67,1.67,0,0,0,.57-1.32c0-.65-.14-.86-.53-.63l-.06,0a2.17,2.17,0,0,0-.64.87l-.42.12Z" fill="#fff"></path><path d="M107.86,138.26a1.44,1.44,0,0,1,.26,1.13,3.89,3.89,0,0,1-.45,1.55,2.79,2.79,0,0,1-.83,1l-.1.07c-.35.21-.64.21-.86,0a1.37,1.37,0,0,1-.27-1.12,4.1,4.1,0,0,1,.25-1.12l1.29-3.65.75-.45-1,2.62.08,0C107.38,138,107.65,138,107.86,138.26Zm-.42,1.54c0-.57-.18-.78-.52-.57l-.05,0a1.65,1.65,0,0,0-.59,1.23c0,.55.19.77.52.57l0,0a1.7,1.7,0,0,0,.6-1.24" fill="#fff"></path><polygon points="108.81 135.2 111.08 133.84 111.05 134.27 109.29 140.44 108.62 140.83 110.22 135.28 108.74 136.15 108.81 135.2" fill="#fff"></polygon><path d="M114.68,134.23c.32.09.45.45.41,1.08a3.45,3.45,0,0,1-.44,1.51,2.7,2.7,0,0,1-.79.94l-.11.07a.7.7,0,0,1-.84,0,1.27,1.27,0,0,1-.27-1.08,3.14,3.14,0,0,1,.58-1.67c-.22-.14-.31-.45-.27-.94a3.24,3.24,0,0,1,.37-1.29,2.36,2.36,0,0,1,.73-.87l.08-.05c.32-.18.57-.19.74,0a1.15,1.15,0,0,1,.23.93A3,3,0,0,1,114.68,134.23Zm-.27,1.49a.64.64,0,0,0-.12-.51c-.09-.08-.22-.09-.37,0l0,0a1.21,1.21,0,0,0-.37.43,1.7,1.7,0,0,0-.19.7.65.65,0,0,0,.11.52c.09.08.22.08.38,0l.05,0a1.19,1.19,0,0,0,.36-.42,1.74,1.74,0,0,0,.19-.69m.07-2.46c0-.43-.13-.61-.41-.44l0,0a1.3,1.3,0,0,0-.46,1c0,.44.13.63.4.47l0,0a1.34,1.34,0,0,0,.47-1" fill="#fff"></path><path d="M118,130.15a1.4,1.4,0,0,1,.27,1.12,3.81,3.81,0,0,1-.25,1.12L116.74,136l-.76.46,1-2.62-.08,0c-.35.21-.63.21-.84,0a1.52,1.52,0,0,1-.26-1.15,3.85,3.85,0,0,1,.45-1.56,2.74,2.74,0,0,1,.83-1l.1-.07A.66.66,0,0,1,118,130.15Zm-.4,1.52c0-.55-.19-.77-.52-.57l0,0a1.71,1.71,0,0,0-.59,1.24c0,.57.18.78.52.57l.05,0a1.63,1.63,0,0,0,.59-1.23" fill="#fff"></path><polygon points="118.91 129.16 121.18 127.8 121.15 128.22 119.39 134.38 118.72 134.78 120.32 129.22 118.84 130.11 118.91 129.16" fill="#fff"></polygon><path d="M123.74,126.71a1.38,1.38,0,0,1,.28,1.12,4,4,0,0,1-.25,1.12l-1.29,3.65-.75.45,1-2.62-.08,0c-.35.22-.63.22-.84,0a1.5,1.5,0,0,1-.26-1.15,3.9,3.9,0,0,1,.45-1.56,2.75,2.75,0,0,1,.83-1l.11-.07C123.24,126.49,123.53,126.5,123.74,126.71Zm-.4,1.53c0-.55-.19-.77-.52-.57l0,0a1.7,1.7,0,0,0-.59,1.23c0,.56.18.77.52.57l.05,0a1.65,1.65,0,0,0,.59-1.23" fill="#fff"></path><g style="isolation: isolate;"><polygon points="78.61 170.75 77.55 174 78.65 176.21 77.87 176.75 77.14 175.26 76.31 177.83 75.53 178.36 76.79 174.53 75.85 172.65 76.61 172.13 77.19 173.28 77.85 171.27 78.61 170.75" fill="#fff"></polygon><polygon points="75.42 172.95 74.36 176.21 75.46 178.42 74.68 178.95 73.95 177.47 73.12 180.03 72.34 180.57 73.6 176.73 72.66 174.86 73.42 174.33 74 175.48 74.65 173.48 75.42 172.95" fill="#fff"></polygon></g><polygon points="81.8 168.54 80.74 171.8 81.84 174 81.07 174.54 80.34 173.06 79.51 175.62 78.72 176.16 79.98 172.32 79.04 170.45 79.81 169.92 80.39 171.07 81.04 169.07 81.8 168.54" fill="#fff"></polygon><polygon points="86.33 165.41 85.27 168.67 86.37 170.88 85.59 171.41 84.86 169.93 84.03 172.49 83.25 173.03 84.5 169.2 83.57 167.32 84.33 166.79 84.91 167.94 85.56 165.94 86.33 165.41" fill="#fff"></polygon><polygon points="89.52 163.21 88.46 166.46 89.56 168.67 88.78 169.21 88.05 167.72 87.22 170.29 86.45 170.82 87.7 166.99 86.76 165.11 87.53 164.59 88.1 165.74 88.75 163.74 89.52 163.21" fill="#fff"></polygon><polygon points="92.71 161 91.65 164.26 92.75 166.47 91.97 167 91.24 165.52 90.41 168.08 89.64 168.62 90.89 164.78 89.95 162.91 90.72 162.38 91.29 163.53 91.95 161.53 92.71 161" fill="#fff"></polygon><path d="M256.42,20a15.78,15.78,0,0,1,6.81,13.69C262.8,46.37,260,48.8,260,48.8L240.77,36.93,210.6,17.58S235.23,11.55,256.42,20Z" fill="#666"></path><path d="M235.67,79.46,202.26,61.18s.47-32.43,13.32-52.23a8.7,8.7,0,0,1,11-3L256.42,20S244.92,13.31,235.67,79.46Z" fill="#e6e6e6"></path><line x1="238.59" y1="29.1" x2="217.15" y2="17.34" fill="#e6e6e6"></line><path d="M239.35,27.8,217.91,16c-1.69-.93-3.21,1.66-1.51,2.59l21.44,11.76c1.69.93,3.21-1.66,1.51-2.59Z" fill="#999"></path><line x1="235.59" y1="34.97" x2="214.15" y2="23.22" fill="#e6e6e6"></line><path d="M236.35,33.68,214.91,21.92c-1.69-.93-3.21,1.66-1.51,2.59l21.44,11.76c1.69.93,3.21-1.66,1.51-2.59Z" fill="#999"></path><line x1="231.18" y1="49.61" x2="209.74" y2="37.86" fill="#e6e6e6"></line><path d="M231.94,48.32,210.5,36.56c-1.69-.93-3.21,1.66-1.51,2.59l21.44,11.76c1.69.93,3.21-1.66,1.51-2.59Z" fill="#999"></path><line x1="229.34" y1="56.77" x2="207.9" y2="45.02" fill="#e6e6e6"></line><path d="M230.1,55.48,208.66,43.72c-1.69-.93-3.21,1.66-1.51,2.59l21.44,11.76c1.69.93,3.21-1.66,1.51-2.59Z" fill="#999"></path><line x1="229.34" y1="64.55" x2="207.9" y2="52.8" fill="#e6e6e6"></line><path d="M230.1,63.26,208.66,51.5c-1.69-.93-3.21,1.66-1.51,2.59l21.44,11.76c1.69.93,3.21-1.66,1.51-2.59Z" fill="#999"></path><polyline points="246.91 40.52 249.16 39.43 249.16 41.75 251.44 40.98 251.44 43.16 254.11 42.27 254.11 44.81 256.46 43.85 256.69 46.4 258.59 45.31 258.89 47.76 260.8 46.4 260.8 48.94 262.93 47.59 263.13 50.38 260.34 50.38" fill="#fff"></polyline><path d="M171,93.89a52.34,52.34,0,0,0,1.6-5.05c.2-1.21-1-5.81-.16-6.07s1.89,2.86,1.89,2.86,2.5-5.64,3.18-5.91,2.71-.45,3.2.06,1.84,3.8,1.24,4.92a64.16,64.16,0,0,1-4.22,5.76c-.22.17-2.85,5.83-3.2,6S171.28,95.16,171,93.89Z" fill="#ffc9b5"></path><path d="M143.59,112.14s13.74-5.43,16.13-7.4,11-12.12,11-12.12,5,1.83,4.94,4.34c0,0-7,11.69-10.25,14.82s-15.11,11-17.71,10.82S143.59,112.14,143.59,112.14Z" fill="#c93535"></path><path d="M152.36,223.35s3.28-2.8,7-1.72,2.92,3.84.6,5.57-11.25,7.74-14,7.68-3.35-2.27-3.41-3.79a70.16,70.16,0,0,1,.81-7" fill="#2c1d1a"></path><path d="M150.31,223.15a.7.7,0,0,0,.92.57,26.85,26.85,0,0,0,2.93-1.12s3.17,0,1.24,3.17-8.58,4.1-10.63,2.92-.68-4.54-.68-4.54" fill="#2c1d1a"></path><path d="M160.08,229.53s3.28-2.8,7-1.72,2.92,3.84.6,5.57-11.25,7.74-14,7.68-3.35-2.27-3.41-3.79a70.16,70.16,0,0,1,.81-7" fill="#2c1d1a"></path><path d="M158,229.34a.7.7,0,0,0,.92.57,26.85,26.85,0,0,0,2.93-1.12s3.17,0,1.24,3.17-8.58,4.1-10.63,2.92-.68-4.54-.68-4.54" fill="#ffc9b5"></path><path d="M161.48,143.07c1.07,2.42,1.65,37.07,1.24,46S158,229.34,158,229.34s-2.43,3.69-6.53,3.43-3.3-3.56-3.3-3.56-5.24,2.43-7.53-2.91c-.85-2-4.84-57.21-4.84-63.5a43.87,43.87,0,0,1,6-21.36" fill="#2c1d1a"></path><path d="M148.2,229.2s-2.49-70-2.17-72.07-.68,15.35-.61,20.11C145.46,180.64,147.53,224.44,148.2,229.2Z" fill="#6d5854"></path><path d="M161.48,143.07s3.62-24.79-1.53-29.47-19.46-8-22.13-5.67,1.34,28.62,4,33.5S159.58,145,161.48,143.07Z" fill="#ea5353"></path><path d="M155,95.37c.12.35,2.66,10-1.77,11.4s-5.32-3.89-5.76-4.19-1.83-.77-1.76-1.84,1.75-1.09,1.75-1.09.65-2.8,2.64-4S155,95.37,155,95.37Z" fill="#ffc9b5"></path><path d="M150.83,98.09s3.7.06,5.3-1.52a3.11,3.11,0,0,0-.26-4.57s1.47-2.93-1.29-3.64c0,0-.25-2.69-5.75-1.46S138.3,92,138.23,97s-.44,5.61-2.22,6.76-1.29,5.56,3.47,5.74,11.25-.24,11.86-2.59-3-2.6-3.45-5A3.43,3.43,0,0,1,150.83,98.09Z" fill="#2c1d1a"></path><path d="M168.63,139.5s3.81,4.06,4.91,4.5a34.11,34.11,0,0,1,4.84,2.71,8.51,8.51,0,0,0-1.35,1.54.52.52,0,0,0,0,.06c-.49-.35-.83-.61-.82-.43,0,.57,3.75,5.45,4.32,6.19s-1,3.16-1,3.16c-2.42.81-5.21-1.64-7-3.3s-2.62-5.5-3.24-6-5.73-3.87-6.09-4.92S168.63,139.5,168.63,139.5Z" fill="#ffc9b5"></path><path d="M161.13,115.37c1,2.21,1,4.63,1.42,7,.33,1.69.67,3.46,1.06,5.17a16.31,16.31,0,0,0,1.62,5c1.4,2.33,3.22,4.35,4.81,6.54a4,4,0,0,1,.93,1.68c.15,1.53-1.78,5.89-7.13,5.35a66.3,66.3,0,0,1-7.56-7.16c-3-3.53-5.84-15.47-5.55-19.44.2-2.7,1.67-5.72,4.23-6.9a4.48,4.48,0,0,1,5,1.13A6,6,0,0,1,161.13,115.37Z" fill="#ea5353"></path><path d="M160.83,143.49s-4.47-3.8-5.57-6.09-2.53-6.41-2.53-6.41,2.07,11.91,4.05,13.5A22.92,22.92,0,0,0,160.83,143.49Z" fill="#2c1d1a"></path><path d="M206.72,206.23l-4.65-7.09L196,196.8l-9.31,4.51-74,42.43L138,258.45C145.57,253.68,199.3,211.25,206.72,206.23Z" opacity="0.48" fill="url(#linear-gradient-4)"></path><path d="M180.43,145.09c-9.16.69-8.68,17-9.3,23.71-.16,1.7,2.22,2.26,2.38.56.52-5.62.17-13.24,3-18.19.88-1.53,1.93-3,3.73-3.17a3.83,3.83,0,0,1,3,1.29c.8.8,1.23,3.94,1.37,4.88a43.87,43.87,0,0,1,.16,10.53c-.16,1.7,2.22,2.26,2.38.56C187.66,159.93,188.59,144.47,180.43,145.09Z" fill="#8ccc00"></path><polyline points="194.13 156.01 196.88 161.05 202.39 162.31 198.26 177.94 186.55 169.62" fill="#dd842a"></polyline><polygon points="165.89 173.15 194.13 156.01 193.21 181.47 171.63 183.74 165.89 173.15" fill="#c13d3d"></polygon><polygon points="175.99 176.93 180.35 225.08 206.75 207.69 202.39 162.31 175.99 176.93" fill="#2196F3"></polygon><polygon points="175.99 176.93 173.01 173.15 165.89 173.15 162.91 215.25 170.57 219.13 180.35 225.08 175.99 176.93" fill="#2196F3"></polygon><polygon points="175.99 176.93 173.01 173.15 165.89 173.15 162.91 215.25 170.57 219.13 180.35 225.08 175.99 176.93" fill="#42210b" opacity="0.14"></polygon><path d="M192.22,153.14c-9.18.09-9.59,16.36-10.57,23.06-.25,1.68,2.1,2.41,2.35.71.82-5.58.89-13.21,4-18,1.27-1.95,3.51-3.59,5.71-2.31,2,1.14,2,3.7,2.19,5.84a43.85,43.85,0,0,1-.41,10.52c-.25,1.68,2.09,2.41,2.35.71C198.63,168.43,200.4,153.06,192.22,153.14Z" fill="#8ccc00"></path></svg>